<svg width="174" height="49" viewBox="0 0 174 49" fill="none" xmlns="http://www.w3.org/2000/svg">
<path d="M68.258 24.002C68.7807 24.0953 69.224 24.3707 69.588 24.828C69.952 25.2853 70.134 25.8033 70.134 26.382C70.134 26.8767 70.0033 27.3247 69.742 27.726C69.49 28.118 69.1213 28.4307 68.636 28.664C68.1507 28.888 67.586 29 66.942 29H63.05V19.27H66.76C67.4227 19.27 67.992 19.382 68.468 19.606C68.944 19.83 69.3033 20.1333 69.546 20.516C69.7887 20.8893 69.91 21.3093 69.91 21.776C69.91 22.336 69.7607 22.8027 69.462 23.176C69.1633 23.5493 68.762 23.8247 68.258 24.002ZM64.646 23.358H66.62C67.1427 23.358 67.5487 23.2413 67.838 23.008C68.1367 22.7653 68.286 22.42 68.286 21.972C68.286 21.5333 68.1367 21.1927 67.838 20.95C67.5487 20.698 67.1427 20.572 66.62 20.572H64.646V23.358ZM66.802 27.698C67.3433 27.698 67.768 27.5673 68.076 27.306C68.384 27.0447 68.538 26.6807 68.538 26.214C68.538 25.738 68.3747 25.36 68.048 25.08C67.7213 24.8 67.2873 24.66 66.746 24.66H64.646V27.698H66.802ZM75.2144 29.126C74.4864 29.126 73.8284 28.9627 73.2404 28.636C72.6524 28.3 72.1904 27.8333 71.8544 27.236C71.5184 26.6293 71.3504 25.9293 71.3504 25.136C71.3504 24.352 71.523 23.6567 71.8684 23.05C72.2137 22.4433 72.685 21.9767 73.2824 21.65C73.8797 21.3233 74.547 21.16 75.2844 21.16C76.0217 21.16 76.689 21.3233 77.2864 21.65C77.8837 21.9767 78.355 22.4433 78.7004 23.05C79.0457 23.6567 79.2184 24.352 79.2184 25.136C79.2184 25.92 79.041 26.6153 78.6864 27.222C78.3317 27.8287 77.8464 28.3 77.2304 28.636C76.6237 28.9627 75.9517 29.126 75.2144 29.126ZM75.2144 27.74C75.625 27.74 76.0077 27.642 76.3624 27.446C76.7264 27.25 77.0204 26.956 77.2444 26.564C77.4684 26.172 77.5804 25.696 77.5804 25.136C77.5804 24.576 77.473 24.1047 77.2584 23.722C77.0437 23.33 76.759 23.036 76.4044 22.84C76.0497 22.644 75.667 22.546 75.2564 22.546C74.8457 22.546 74.463 22.644 74.1084 22.84C73.763 23.036 73.4877 23.33 73.2824 23.722C73.077 24.1047 72.9744 24.576 72.9744 25.136C72.9744 25.9667 73.1844 26.6107 73.6044 27.068C74.0337 27.516 74.5704 27.74 75.2144 27.74ZM84.1421 29.126C83.4141 29.126 82.7561 28.9627 82.1681 28.636C81.5801 28.3 81.1181 27.8333 80.7821 27.236C80.4461 26.6293 80.2781 25.9293 80.2781 25.136C80.2781 24.352 80.4508 23.6567 80.7961 23.05C81.1414 22.4433 81.6128 21.9767 82.2101 21.65C82.8074 21.3233 83.4748 21.16 84.2121 21.16C84.9494 21.16 85.6168 21.3233 86.2141 21.65C86.8114 21.9767 87.2828 22.4433 87.6281 23.05C87.9734 23.6567 88.1461 24.352 88.1461 25.136C88.1461 25.92 87.9688 26.6153 87.6141 27.222C87.2594 27.8287 86.7741 28.3 86.1581 28.636C85.5514 28.9627 84.8794 29.126 84.1421 29.126ZM84.1421 27.74C84.5528 27.74 84.9354 27.642 85.2901 27.446C85.6541 27.25 85.9481 26.956 86.1721 26.564C86.3961 26.172 86.5081 25.696 86.5081 25.136C86.5081 24.576 86.4008 24.1047 86.1861 23.722C85.9714 23.33 85.6868 23.036 85.3321 22.84C84.9774 22.644 84.5948 22.546 84.1841 22.546C83.7734 22.546 83.3908 22.644 83.0361 22.84C82.6908 23.036 82.4154 23.33 82.2101 23.722C82.0048 24.1047 81.9021 24.576 81.9021 25.136C81.9021 25.9667 82.1121 26.6107 82.5321 27.068C82.9614 27.516 83.4981 27.74 84.1421 27.74ZM92.5238 29.126C91.9172 29.126 91.3712 29.0187 90.8858 28.804C90.4098 28.58 90.0318 28.2813 89.7518 27.908C89.4718 27.5253 89.3225 27.1007 89.3038 26.634H90.9558C90.9838 26.9607 91.1378 27.236 91.4178 27.46C91.7072 27.6747 92.0665 27.782 92.4958 27.782C92.9438 27.782 93.2892 27.698 93.5318 27.53C93.7838 27.3527 93.9098 27.1287 93.9098 26.858C93.9098 26.5687 93.7698 26.354 93.4898 26.214C93.2192 26.074 92.7852 25.92 92.1878 25.752C91.6092 25.5933 91.1378 25.4393 90.7738 25.29C90.4098 25.1407 90.0925 24.912 89.8218 24.604C89.5605 24.296 89.4298 23.89 89.4298 23.386C89.4298 22.9753 89.5512 22.602 89.7938 22.266C90.0365 21.9207 90.3818 21.65 90.8298 21.454C91.2872 21.258 91.8098 21.16 92.3978 21.16C93.2752 21.16 93.9798 21.384 94.5118 21.832C95.0532 22.2707 95.3425 22.8727 95.3798 23.638H93.7838C93.7558 23.2927 93.6158 23.0173 93.3638 22.812C93.1118 22.6067 92.7712 22.504 92.3418 22.504C91.9218 22.504 91.5998 22.5833 91.3758 22.742C91.1518 22.9007 91.0398 23.1107 91.0398 23.372C91.0398 23.5773 91.1145 23.75 91.2638 23.89C91.4132 24.03 91.5952 24.142 91.8098 24.226C92.0245 24.3007 92.3418 24.3987 92.7618 24.52C93.3218 24.6693 93.7792 24.8233 94.1338 24.982C94.4978 25.1313 94.8105 25.3553 95.0718 25.654C95.3332 25.9527 95.4685 26.3493 95.4778 26.844C95.4778 27.2827 95.3565 27.6747 95.1138 28.02C94.8712 28.3653 94.5258 28.636 94.0778 28.832C93.6392 29.028 93.1212 29.126 92.5238 29.126ZM99.0643 22.588V26.858C99.0643 27.1473 99.1297 27.3573 99.2603 27.488C99.4003 27.6093 99.6337 27.67 99.9603 27.67H100.94V29H99.6803C98.9617 29 98.411 28.832 98.0283 28.496C97.6457 28.16 97.4543 27.614 97.4543 26.858V22.588H96.5443V21.286H97.4543V19.368H99.0643V21.286H100.94V22.588H99.0643ZM112.992 21.286L108.26 32.626H106.608L108.176 28.874L105.138 21.286H106.916L109.086 27.166L111.34 21.286H112.992ZM117.542 29.126C116.814 29.126 116.156 28.9627 115.568 28.636C114.98 28.3 114.518 27.8333 114.182 27.236C113.846 26.6293 113.678 25.9293 113.678 25.136C113.678 24.352 113.851 23.6567 114.196 23.05C114.542 22.4433 115.013 21.9767 115.61 21.65C116.208 21.3233 116.875 21.16 117.612 21.16C118.35 21.16 119.017 21.3233 119.614 21.65C120.212 21.9767 120.683 22.4433 121.028 23.05C121.374 23.6567 121.546 24.352 121.546 25.136C121.546 25.92 121.369 26.6153 121.014 27.222C120.66 27.8287 120.174 28.3 119.558 28.636C118.952 28.9627 118.28 29.126 117.542 29.126ZM117.542 27.74C117.953 27.74 118.336 27.642 118.69 27.446C119.054 27.25 119.348 26.956 119.572 26.564C119.796 26.172 119.908 25.696 119.908 25.136C119.908 24.576 119.801 24.1047 119.586 23.722C119.372 23.33 119.087 23.036 118.732 22.84C118.378 22.644 117.995 22.546 117.584 22.546C117.174 22.546 116.791 22.644 116.436 22.84C116.091 23.036 115.816 23.33 115.61 23.722C115.405 24.1047 115.302 24.576 115.302 25.136C115.302 25.9667 115.512 26.6107 115.932 27.068C116.362 27.516 116.898 27.74 117.542 27.74ZM130.11 21.286V29H128.514V28.09C128.262 28.4073 127.931 28.6593 127.52 28.846C127.119 29.0233 126.69 29.112 126.232 29.112C125.626 29.112 125.08 28.986 124.594 28.734C124.118 28.482 123.74 28.1087 123.46 27.614C123.19 27.1193 123.054 26.522 123.054 25.822V21.286H124.636V25.584C124.636 26.2747 124.809 26.8067 125.154 27.18C125.5 27.544 125.971 27.726 126.568 27.726C127.166 27.726 127.637 27.544 127.982 27.18C128.337 26.8067 128.514 26.2747 128.514 25.584V21.286H130.11ZM133.812 22.406C134.045 22.014 134.353 21.7107 134.736 21.496C135.128 21.272 135.59 21.16 136.122 21.16V22.812H135.716C135.091 22.812 134.615 22.9707 134.288 23.288C133.971 23.6053 133.812 24.156 133.812 24.94V29H132.216V21.286H133.812V22.406ZM151.586 21.286L149.192 29H147.512L145.958 23.302L144.404 29H142.724L140.316 21.286H141.94L143.55 27.488L145.188 21.286H146.854L148.422 27.46L150.018 21.286H151.586ZM156.125 29.126C155.397 29.126 154.739 28.9627 154.151 28.636C153.563 28.3 153.101 27.8333 152.765 27.236C152.429 26.6293 152.261 25.9293 152.261 25.136C152.261 24.352 152.433 23.6567 152.779 23.05C153.124 22.4433 153.595 21.9767 154.193 21.65C154.79 21.3233 155.457 21.16 156.195 21.16C156.932 21.16 157.599 21.3233 158.197 21.65C158.794 21.9767 159.265 22.4433 159.611 23.05C159.956 23.6567 160.129 24.352 160.129 25.136C160.129 25.92 159.951 26.6153 159.597 27.222C159.242 27.8287 158.757 28.3 158.141 28.636C157.534 28.9627 156.862 29.126 156.125 29.126ZM156.125 27.74C156.535 27.74 156.918 27.642 157.273 27.446C157.637 27.25 157.931 26.956 158.155 26.564C158.379 26.172 158.491 25.696 158.491 25.136C158.491 24.576 158.383 24.1047 158.169 23.722C157.954 23.33 157.669 23.036 157.315 22.84C156.96 22.644 156.577 22.546 156.167 22.546C155.756 22.546 155.373 22.644 155.019 22.84C154.673 23.036 154.398 23.33 154.193 23.722C153.987 24.1047 153.885 24.576 153.885 25.136C153.885 25.9667 154.095 26.6107 154.515 27.068C154.944 27.516 155.481 27.74 156.125 27.74ZM163.302 22.406C163.536 22.014 163.844 21.7107 164.226 21.496C164.618 21.272 165.08 21.16 165.612 21.16V22.812H165.206C164.581 22.812 164.105 22.9707 163.778 23.288C163.461 23.6053 163.302 24.156 163.302 24.94V29H161.706V21.286H163.302V22.406ZM170.131 25.15L173.687 29H171.531L168.675 25.682V29H167.079V18.64H168.675V24.66L171.475 21.286H173.687L170.131 25.15Z" fill="#2F4BDF"/>
<path d="M36.6812 24.0482L33.6187 30.9388C33.5583 31.0731 33.4605 31.1872 33.3369 31.2673C33.2133 31.3474 33.0693 31.3902 32.922 31.3905C32.8681 31.3892 32.8144 31.3841 32.7612 31.3752C32.5897 31.3383 32.436 31.2437 32.3259 31.1071C32.2158 30.9706 32.156 30.8003 32.1564 30.6249V26.0311H29.8595C29.7318 26.0309 29.6062 25.9987 29.4941 25.9374C29.382 25.8762 29.287 25.788 29.2178 25.6807C29.1486 25.5734 29.1072 25.4505 29.0976 25.3231C29.088 25.1958 29.1104 25.0681 29.1628 24.9516L32.2253 18.061C32.2957 17.9003 32.4197 17.769 32.576 17.6895C32.7323 17.6099 32.9114 17.587 33.0828 17.6246C33.2543 17.6614 33.408 17.756 33.5181 17.8926C33.6282 18.0292 33.688 18.1994 33.6876 18.3749V22.9686H35.9845C36.1122 22.9689 36.2378 23.0011 36.3499 23.0623C36.4619 23.1235 36.5569 23.2118 36.6262 23.3191C36.6954 23.4264 36.7367 23.5493 36.7463 23.6766C36.756 23.804 36.7336 23.9317 36.6812 24.0482V24.0482Z" fill="#2F4BDF"/>
<path d="M32.9219 11.4844H12.25C11.8448 11.4874 11.4571 11.6497 11.1706 11.9362C10.884 12.2227 10.7218 12.6104 10.7188 13.0156C10.72 13.4214 10.8817 13.8101 11.1686 14.097C11.4555 14.3839 11.8443 14.5457 12.25 14.5469C12.4531 14.5469 12.6478 14.6275 12.7914 14.7711C12.935 14.9147 13.0156 15.1094 13.0156 15.3125C13.0156 15.5156 12.935 15.7103 12.7914 15.8539C12.6478 15.9975 12.4531 16.0781 12.25 16.0781H7.65625C7.25107 16.0811 6.86333 16.2434 6.57681 16.5299C6.2903 16.8165 6.12801 17.2042 6.125 17.6094C6.12621 18.0151 6.28793 18.4039 6.57483 18.6908C6.86173 18.9777 7.25051 19.1394 7.65625 19.1406H19.8756C20.0024 19.13 20.1299 19.1511 20.2465 19.202C20.3631 19.253 20.4651 19.3322 20.5434 19.4326C20.6217 19.5329 20.6737 19.6511 20.6948 19.7766C20.7159 19.9021 20.7054 20.0308 20.6642 20.1512C20.4056 20.8907 20.2135 21.6516 20.09 22.4252C20.0584 22.6153 19.9568 22.7867 19.8052 22.9057C19.6536 23.0248 19.463 23.0827 19.2708 23.0683C19.1606 23.0561 19.0539 23.0223 18.9569 22.9688H13.7812C13.3761 22.9718 12.9883 23.134 12.7018 23.4206C12.4153 23.7071 12.253 24.0948 12.25 24.5C12.2512 24.9057 12.4129 25.2945 12.6998 25.5814C12.9867 25.8683 13.3755 26.03 13.7812 26.0312H19.1483C19.1866 26.0236 19.2325 26.0159 19.2784 26.0083C19.467 25.9884 19.6562 26.0404 19.8081 26.154C19.96 26.2675 20.0634 26.4343 20.0977 26.6208C20.2204 27.3787 20.41 28.1243 20.6642 28.8488C20.7193 29.003 20.7237 29.1708 20.6769 29.3278C20.6301 29.4847 20.5345 29.6227 20.4039 29.7216C20.3205 29.7841 20.2251 29.8286 20.1236 29.8523C20.0221 29.876 19.9168 29.8784 19.8144 29.8594H7.65625C7.25051 29.8606 6.86173 30.0223 6.57483 30.3092C6.28793 30.5961 6.12621 30.9849 6.125 31.3906C6.12801 31.7958 6.2903 32.1835 6.57681 32.4701C6.86333 32.7566 7.25107 32.9189 7.65625 32.9219H12.25C12.4531 32.9219 12.6478 33.0025 12.7914 33.1461C12.935 33.2897 13.0156 33.4844 13.0156 33.6875C13.0156 33.8906 12.935 34.0853 12.7914 34.2289C12.6478 34.3725 12.4531 34.4531 12.25 34.4531C11.8443 34.4543 11.4555 34.6161 11.1686 34.903C10.8817 35.1899 10.72 35.5786 10.7188 35.9844C10.7218 36.3896 10.884 36.7773 11.1706 37.0638C11.4571 37.3503 11.8448 37.5126 12.25 37.5156H32.9219C36.3738 37.5156 39.6844 36.1443 42.1253 33.7034C44.5662 31.2625 45.9375 27.952 45.9375 24.5C45.9375 21.048 44.5662 17.7375 42.1253 15.2966C39.6844 12.8557 36.3738 11.4844 32.9219 11.4844V11.4844ZM32.9219 34.4531C30.9533 34.4531 29.029 33.8694 27.3922 32.7757C25.7554 31.6821 24.4797 30.1276 23.7264 28.3089C22.9731 26.4902 22.776 24.489 23.16 22.5582C23.544 20.6275 24.492 18.854 25.884 17.4621C27.2759 16.0701 29.0494 15.1222 30.9801 14.7381C32.9108 14.3541 34.9121 14.5512 36.7308 15.3045C38.5495 16.0578 40.1039 17.3336 41.1976 18.9703C42.2913 20.6071 42.875 22.5315 42.875 24.5C42.8726 27.139 41.8232 29.6692 39.9571 31.5352C38.0911 33.4013 35.5609 34.4507 32.9219 34.4531Z" fill="#2F4BDF"/>
<path d="M6.125 26.0312C6.53111 26.0312 6.92059 25.8699 7.20776 25.5828C7.49492 25.2956 7.65625 24.9061 7.65625 24.5C7.65625 24.0939 7.49492 23.7044 7.20776 23.4172C6.92059 23.1301 6.53111 22.9688 6.125 22.9688H4.59375C4.18764 22.9688 3.79816 23.1301 3.51099 23.4172C3.22383 23.7044 3.0625 24.0939 3.0625 24.5C3.0625 24.9061 3.22383 25.2956 3.51099 25.5828C3.79816 25.8699 4.18764 26.0312 4.59375 26.0312H6.125Z" fill="#2F4BDF"/>
</svg>
