<svg width="220" height="220" viewBox="0 0 220 220" fill="none" xmlns="http://www.w3.org/2000/svg">
<circle cx="110" cy="110" r="110" fill="#3ADAD9"/>
<circle cx="50" cy="133" r="15" fill="white" fill-opacity="0.29"/>
<circle cx="160" cy="77" r="10" fill="white" fill-opacity="0.29"/>
<g clip-path="url(#clip0_5263_9)">
<path d="M110 55.5776C107.809 55.5776 105.701 56.2367 103.902 57.4836C103.371 57.8522 103.236 58.5851 103.602 59.1208C103.968 59.6564 104.696 59.7917 105.227 59.4233C106.634 58.4478 108.284 57.9322 110 57.9322C114.649 57.9322 118.431 61.7428 118.431 66.4267C118.431 71.1106 114.649 74.9214 110 74.9214C105.351 74.9214 101.569 71.1106 101.569 66.4267C101.569 65.045 101.887 63.7278 102.515 62.5119C102.813 61.935 102.591 61.2242 102.018 60.9242C101.445 60.6244 100.74 60.8483 100.442 61.4251C99.6505 62.9583 99.2319 64.6878 99.2319 66.4267C99.2321 72.409 104.063 77.2759 110 77.2759C115.938 77.2759 120.768 72.409 120.768 66.4267C120.768 60.4445 115.938 55.5776 110 55.5776Z" fill="white"/>
<path d="M149.911 119.37L138.379 91.4541C138.198 91.0152 137.772 90.7292 137.3 90.7292H125.809C128.044 87.6827 129.904 84.6481 131.357 81.6686C133.932 76.3883 135.238 71.2603 135.238 66.4269C135.237 52.4064 123.916 41 110 41C96.0846 41 84.7634 52.4064 84.7634 66.4267C84.7634 71.2602 86.0688 76.3883 88.6438 81.6684C90.0967 84.648 91.9571 87.6827 94.1924 90.7291H82.7007C82.2288 90.7291 81.8032 91.0152 81.6221 91.4539L73.764 110.477C73.516 111.077 73.7979 111.766 74.3937 112.016C74.5406 112.077 74.6924 112.107 74.8421 112.107C75.2999 112.107 75.7345 111.834 75.9212 111.381L77.0424 108.667H84.9965L80.8746 118.645H72.9207L74.1156 115.753C74.3635 115.152 74.0817 114.463 73.4859 114.214C72.8898 113.964 72.206 114.248 71.9582 114.848L70.0903 119.37C69.9401 119.734 69.9801 120.149 70.197 120.476C70.4135 120.803 70.7782 121 71.1688 121H148.832C149.222 121 149.587 120.803 149.804 120.476C150.021 120.149 150.061 119.734 149.911 119.37ZM87.1003 66.4267C87.1003 53.7045 97.3732 43.3544 110 43.3544C122.628 43.3544 132.901 53.7047 132.901 66.4267C132.901 71.7616 131.061 80.2866 122.55 91.1503C122.541 91.1605 122.534 91.1712 122.525 91.1817C122.091 91.7359 121.639 92.2961 121.169 92.8625C116.492 98.4972 111.759 102.612 110 104.074C108.246 102.617 103.536 98.5228 98.8623 92.8989C98.3804 92.3191 97.9182 91.7458 97.4734 91.1786C97.4662 91.1695 97.4595 91.1602 97.452 91.1512C88.9413 80.2883 87.1003 71.7636 87.1003 66.4267ZM83.4799 93.0836H91.4342L88.5329 100.107H80.5788L83.4799 93.0836ZM90.3124 118.646L97.6157 100.966L118.399 118.646H90.3124ZM122.022 118.646L97.904 98.13C97.6193 97.8877 97.2368 97.7969 96.8753 97.8853C96.5134 97.9736 96.2146 98.2306 96.0717 98.577L87.7815 118.645H83.4059L87.8271 107.942C87.9773 107.579 87.9373 107.164 87.7204 106.837C87.5038 106.509 87.139 106.312 86.7484 106.312H78.0154L79.6063 102.461H89.3123C89.7842 102.461 90.2098 102.175 90.3909 101.736L93.9653 93.0834H95.9931C96.3451 93.5256 96.7029 93.968 97.0703 94.4102C103.099 101.665 109.036 106.323 109.285 106.517C109.496 106.682 109.748 106.763 110 106.763C110.253 106.763 110.505 106.681 110.715 106.517C110.853 106.41 112.709 104.953 115.352 102.461H128.583C129.229 102.461 129.752 101.934 129.752 101.284C129.752 100.634 129.229 100.107 128.583 100.107H117.76C119.38 98.4656 121.151 96.5522 122.931 94.4103C123.298 93.9681 123.656 93.5259 124.008 93.0836H136.521L139.422 100.107H133.257C132.612 100.107 132.088 100.634 132.088 101.284C132.088 101.934 132.611 102.461 133.257 102.461H140.394L141.985 106.313H117.912C117.424 106.313 116.988 106.618 116.817 107.078C116.647 107.538 116.778 108.057 117.146 108.379L128.886 118.646H122.022ZM132.451 118.646L121.041 108.667H142.958L147.08 118.646H132.451Z" fill="white"/>
</g>
<path d="M83.212 167V147.26H86.208L93.208 160.168L100.18 147.26H103.12V167H99.872V153.7L94.216 164.004H92.116L86.46 153.756V167H83.212ZM112.197 167.28C111.207 167.28 110.321 167.093 109.537 166.72C108.771 166.328 108.165 165.805 107.717 165.152C107.287 164.499 107.073 163.761 107.073 162.94C107.073 161.932 107.334 161.139 107.857 160.56C108.379 159.963 109.229 159.533 110.405 159.272C111.581 159.011 113.158 158.88 115.137 158.88H116.117V158.292C116.117 157.359 115.911 156.687 115.501 156.276C115.09 155.865 114.399 155.66 113.429 155.66C112.663 155.66 111.879 155.781 111.077 156.024C110.274 156.248 109.462 156.603 108.641 157.088L107.633 154.708C108.118 154.372 108.687 154.083 109.341 153.84C110.013 153.579 110.713 153.383 111.441 153.252C112.187 153.103 112.887 153.028 113.541 153.028C115.538 153.028 117.022 153.495 117.993 154.428C118.963 155.343 119.449 156.771 119.449 158.712V167H116.173V164.816C115.855 165.581 115.351 166.188 114.661 166.636C113.97 167.065 113.149 167.28 112.197 167.28ZM112.925 164.872C113.839 164.872 114.595 164.555 115.193 163.92C115.809 163.285 116.117 162.483 116.117 161.512V160.896H115.165C113.41 160.896 112.187 161.036 111.497 161.316C110.825 161.577 110.489 162.063 110.489 162.772C110.489 163.388 110.703 163.892 111.133 164.284C111.562 164.676 112.159 164.872 112.925 164.872ZM123.561 172.04V153.308H126.977V155.492C127.369 154.745 127.957 154.148 128.741 153.7C129.544 153.252 130.449 153.028 131.457 153.028C132.652 153.028 133.697 153.317 134.593 153.896C135.508 154.475 136.217 155.296 136.721 156.36C137.225 157.405 137.477 158.665 137.477 160.14C137.477 161.596 137.225 162.865 136.721 163.948C136.217 165.012 135.517 165.833 134.621 166.412C133.725 166.991 132.67 167.28 131.457 167.28C130.486 167.28 129.609 167.075 128.825 166.664C128.06 166.235 127.472 165.665 127.061 164.956V172.04H123.561ZM130.477 164.62C131.522 164.62 132.362 164.247 132.997 163.5C133.632 162.735 133.949 161.615 133.949 160.14C133.949 158.647 133.632 157.536 132.997 156.808C132.362 156.061 131.522 155.688 130.477 155.688C129.432 155.688 128.592 156.061 127.957 156.808C127.322 157.536 127.005 158.647 127.005 160.14C127.005 161.615 127.322 162.735 127.957 163.5C128.592 164.247 129.432 164.62 130.477 164.62Z" fill="white"/>
<defs>
<clipPath id="clip0_5263_9">
<rect width="80" height="80" fill="white" transform="translate(70 41)"/>
</clipPath>
</defs>
</svg>
