<?xml version="1.0" encoding="utf-8"?>
<!-- Generator: Adobe Illustrator 26.5.0, SVG Export Plug-In . SVG Version: 6.00 Build 0)  -->
<svg version="1.1" id="Layer_1" xmlns="http://www.w3.org/2000/svg" xmlns:xlink="http://www.w3.org/1999/xlink" x="0px" y="0px"
	 viewBox="0 0 375.1 152.6" style="enable-background:new 0 0 375.1 152.6;" xml:space="preserve">
<style type="text/css">
	.st0{fill:#FFFFFF;}
	.st1{fill:#3ADAD9;}
	.st2{fill:#6C71A1;}
	.st3{fill:#2B3377;}
	.st4{fill:#FFCD1A;}
	.st5{fill:#CCCCCC;}
</style>
<g>
	<path class="st0" d="M0,18C0,8.1,8.1,0,18,0h339.1c9.9,0,18,8.1,18,18v103.7c0,9.9-8.1,18-18,18H38.5c-4,0-7.9,1.5-11,4.2l-6.2,5.5
		c-8.3,7.3-21.4,1.4-21.4-9.6l0,0V18z"/>
	<path class="st1" d="M276.6,12.8h68c3.9,0,7,3.1,7,7v18.5c0,3.9-3.1,7-7,7h-68c-3.9,0-7-3.1-7-7V19.8
		C269.6,16,272.7,12.8,276.6,12.8z"/>
	<path class="st0" d="M287.7,35.3v-14h4.7c2.3,0,4,0.6,5.3,1.8c1.2,1.2,1.9,2.9,1.9,5.2s-0.6,4-1.9,5.2c-1.2,1.2-3,1.8-5.3,1.8
		H287.7z M289.4,33.9h3c3.7,0,5.5-1.9,5.5-5.6c0-3.7-1.8-5.6-5.5-5.6h-3V33.9z M306.3,35.5c-0.9,0-1.8-0.2-2.5-0.6
		c-0.7-0.4-1.2-1-1.6-1.7c-0.4-0.8-0.6-1.6-0.6-2.7c0-1,0.2-1.9,0.6-2.7c0.4-0.8,0.9-1.3,1.6-1.8c0.7-0.4,1.5-0.6,2.5-0.6
		c0.9,0,1.7,0.2,2.4,0.6c0.7,0.4,1.2,1,1.6,1.8c0.4,0.7,0.6,1.6,0.6,2.7c0,1-0.2,1.9-0.6,2.7c-0.4,0.7-0.9,1.3-1.6,1.7
		C308.1,35.3,307.2,35.5,306.3,35.5z M306.3,34.2c0.9,0,1.6-0.3,2.2-1c0.5-0.7,0.8-1.6,0.8-2.8c0-1.2-0.3-2.1-0.8-2.8
		c-0.5-0.6-1.3-1-2.2-1c-0.9,0-1.6,0.3-2.2,1c-0.5,0.6-0.8,1.6-0.8,2.8c0,1.2,0.3,2.1,0.8,2.8C304.7,33.9,305.4,34.2,306.3,34.2z
		 M313.4,35.3v-9.7h1.6v1.7c0.3-0.6,0.8-1.1,1.4-1.4c0.6-0.3,1.2-0.5,2-0.5c2.3,0,3.4,1.3,3.4,3.8v6h-1.6v-5.9c0-0.9-0.2-1.6-0.5-2
		c-0.3-0.4-0.9-0.6-1.7-0.6c-0.9,0-1.6,0.3-2.1,0.8c-0.5,0.5-0.8,1.3-0.8,2.2v5.5H313.4z M329.1,35.5c-1.5,0-2.7-0.4-3.6-1.3
		c-0.9-0.9-1.3-2.1-1.3-3.7c0-1,0.2-1.9,0.6-2.6c0.4-0.8,0.9-1.4,1.6-1.8c0.7-0.4,1.5-0.6,2.4-0.6c1.3,0,2.3,0.4,3.1,1.3
		c0.7,0.8,1.1,2,1.1,3.5v0.6h-7.3c0.1,1.1,0.4,1.9,1,2.5c0.6,0.6,1.4,0.9,2.4,0.9c0.6,0,1.1-0.1,1.7-0.3c0.5-0.2,1-0.5,1.5-0.9
		l0.6,1.1c-0.4,0.4-1,0.7-1.7,1C330.4,35.4,329.8,35.5,329.1,35.5z M328.8,26.6c-0.9,0-1.6,0.3-2.2,0.9c-0.5,0.6-0.8,1.3-0.9,2.3
		h5.9c0-1-0.3-1.7-0.8-2.3C330.3,26.9,329.7,26.6,328.8,26.6z"/>
	<path class="st2" d="M27.3,55.2V42h1.9v11.6h6.5v1.7H27.3z M40.5,55.4c-2.2,0-3.3-1.2-3.3-3.7v-5.6h1.9v5.6c0,0.7,0.1,1.3,0.4,1.6
		s0.8,0.5,1.4,0.5c0.7,0,1.3-0.2,1.7-0.7c0.4-0.5,0.7-1.1,0.7-1.9v-5.2h1.9v9.2h-1.8v-1.5c-0.3,0.5-0.7,0.9-1.2,1.2
		C41.8,55.3,41.2,55.4,40.5,55.4z M52,55.4c-0.9,0-1.8-0.2-2.4-0.6c-0.7-0.4-1.2-1-1.6-1.7c-0.4-0.7-0.6-1.6-0.6-2.5
		c0-1.5,0.4-2.6,1.2-3.4c0.8-0.8,1.9-1.3,3.3-1.3c0.6,0,1.1,0.1,1.7,0.3c0.6,0.2,1,0.5,1.4,0.8l-0.6,1.3c-0.3-0.3-0.7-0.6-1.2-0.7
		c-0.4-0.2-0.8-0.2-1.2-0.2c-0.9,0-1.6,0.3-2.1,0.8c-0.5,0.6-0.7,1.3-0.7,2.4s0.2,1.8,0.7,2.4c0.5,0.6,1.2,0.9,2.1,0.9
		c0.4,0,0.8-0.1,1.2-0.2c0.4-0.2,0.8-0.4,1.2-0.7l0.6,1.4c-0.4,0.3-0.8,0.6-1.4,0.8C53.1,55.3,52.6,55.4,52,55.4z M57.8,58.6
		l1.6-3.6l-3.8-8.9h2l2.8,7l2.9-7h2l-5.5,12.5H57.8z M71.7,55.2V42h1.5l7.6,10V42h1.8v13.2h-1.4l-7.6-10v10H71.7z M85.3,44v-2h2.2v2
		H85.3z M85.4,55.2v-9.2h1.9v9.2H85.4z M92.9,55.4c-0.6,0-1.2-0.1-1.7-0.4s-0.9-0.6-1.2-1c-0.3-0.4-0.4-0.9-0.4-1.4
		c0-0.7,0.2-1.2,0.5-1.6c0.3-0.4,0.9-0.7,1.7-0.8c0.8-0.2,1.9-0.3,3.2-0.3h0.6v-0.5c0-0.7-0.1-1.2-0.5-1.5c-0.3-0.3-0.8-0.5-1.5-0.5
		c-0.5,0-1.1,0.1-1.6,0.2c-0.5,0.2-1.1,0.4-1.6,0.7L90,47c0.5-0.3,1.1-0.6,1.8-0.8c0.7-0.2,1.4-0.3,2-0.3c1.2,0,2.2,0.3,2.8,0.9
		c0.6,0.6,0.9,1.5,0.9,2.8v5.6h-1.8v-1.5c-0.2,0.5-0.6,0.9-1.1,1.2C94.1,55.3,93.6,55.4,92.9,55.4z M93.3,54.1
		c0.7,0,1.2-0.2,1.7-0.7c0.5-0.5,0.7-1.1,0.7-1.8V51H95c-0.9,0-1.6,0-2.2,0.1c-0.5,0.1-0.9,0.2-1.1,0.4c-0.2,0.2-0.3,0.5-0.3,0.8
		c0,0.5,0.2,0.9,0.5,1.2C92.3,53.9,92.7,54.1,93.3,54.1z M100.1,55.2v-9.2h1.8v1.5c0.3-0.6,0.7-1,1.3-1.3c0.6-0.3,1.2-0.4,1.8-0.4
		c2.2,0,3.2,1.2,3.2,3.7v5.6h-1.9v-5.5c0-0.8-0.2-1.4-0.5-1.7c-0.3-0.4-0.8-0.5-1.4-0.5c-0.8,0-1.4,0.2-1.8,0.7
		c-0.4,0.5-0.7,1.1-0.7,1.9v5.2H100.1z M113.8,55.4c-0.6,0-1.2-0.1-1.7-0.4s-0.9-0.6-1.2-1c-0.3-0.4-0.4-0.9-0.4-1.4
		c0-0.7,0.2-1.2,0.5-1.6c0.4-0.4,0.9-0.7,1.7-0.8c0.8-0.2,1.9-0.3,3.2-0.3h0.6v-0.5c0-0.7-0.1-1.2-0.4-1.5c-0.3-0.3-0.8-0.5-1.5-0.5
		c-0.5,0-1.1,0.1-1.6,0.2c-0.5,0.2-1.1,0.4-1.6,0.7l-0.6-1.3c0.5-0.3,1.1-0.6,1.8-0.8c0.7-0.2,1.4-0.3,2-0.3c1.2,0,2.2,0.3,2.8,0.9
		c0.6,0.6,0.9,1.5,0.9,2.8v5.6h-1.8v-1.5c-0.2,0.5-0.6,0.9-1,1.2C115,55.3,114.5,55.4,113.8,55.4z M114.2,54.1
		c0.7,0,1.2-0.2,1.7-0.7c0.4-0.5,0.7-1.1,0.7-1.8V51h-0.6c-0.9,0-1.6,0-2.2,0.1c-0.5,0.1-0.9,0.2-1.1,0.4c-0.2,0.2-0.3,0.5-0.3,0.8
		c0,0.5,0.2,0.9,0.5,1.2C113.1,53.9,113.6,54.1,114.2,54.1z"/>
	<path class="st3" d="M27.4,85.2V70.3h5.5c2.5,0,4.4,0.6,5.8,1.9c1.4,1.3,2,3.1,2,5.5c0,2.4-0.7,4.2-2,5.5c-1.3,1.3-3.3,1.9-5.8,1.9
		H27.4z M30.1,82.9h2.7c3.4,0,5.1-1.7,5.1-5.2c0-3.5-1.7-5.2-5.1-5.2h-2.7V82.9z M48.3,85.4c-1.2,0-2.2-0.2-3-0.7
		c-0.8-0.4-1.5-1.1-2-1.9c-0.4-0.8-0.7-1.8-0.7-2.8c0-1.1,0.2-2,0.7-2.8c0.5-0.8,1.1-1.4,1.8-1.9c0.8-0.5,1.7-0.7,2.7-0.7
		c1.5,0,2.6,0.5,3.5,1.4c0.9,0.9,1.3,2.2,1.3,3.8v0.8h-7.4c0.2,1.8,1.3,2.8,3.2,2.8c0.6,0,1.2-0.1,1.7-0.3c0.6-0.2,1.1-0.5,1.6-0.8
		l0.7,1.8c-0.5,0.4-1.1,0.7-1.9,1C49.8,85.3,49.1,85.4,48.3,85.4z M47.9,76.4c-0.8,0-1.4,0.2-1.9,0.7c-0.5,0.5-0.8,1.1-0.9,1.9h5.2
		c-0.1-0.9-0.3-1.5-0.7-2C49.3,76.7,48.7,76.4,47.9,76.4z M57.5,85.2l-4.5-10.3h2.8l2.9,7.2l3-7.2h2.6l-4.5,10.3H57.5z M70.5,85.4
		c-1.2,0-2.2-0.2-3-0.7c-0.8-0.4-1.5-1.1-2-1.9c-0.5-0.8-0.7-1.8-0.7-2.8c0-1.1,0.2-2,0.7-2.8c0.4-0.8,1.1-1.4,1.8-1.9
		c0.8-0.5,1.7-0.7,2.7-0.7c1.5,0,2.6,0.5,3.5,1.4c0.9,0.9,1.3,2.2,1.3,3.8v0.8h-7.4c0.2,1.8,1.3,2.8,3.2,2.8c0.6,0,1.2-0.1,1.7-0.3
		c0.6-0.2,1.1-0.5,1.6-0.8l0.7,1.8c-0.5,0.4-1.1,0.7-1.9,1C72,85.3,71.2,85.4,70.5,85.4z M70.1,76.4c-0.8,0-1.4,0.2-1.9,0.7
		c-0.5,0.5-0.8,1.1-0.9,1.9h5.2c-0.1-0.9-0.3-1.5-0.7-2C71.4,76.7,70.9,76.4,70.1,76.4z M80.4,85.4c-1.2,0-2.1-0.3-2.7-1
		c-0.6-0.7-0.9-1.7-0.9-3V70.3h2.6v11c0,1.3,0.5,1.9,1.6,1.9c0.2,0,0.3,0,0.5,0c0.2,0,0.3,0,0.4-0.1l0,2.1
		C81.5,85.3,80.9,85.4,80.4,85.4z M88.2,85.4c-1.1,0-2-0.2-2.8-0.7c-0.8-0.4-1.4-1.1-1.8-1.9c-0.4-0.8-0.7-1.8-0.7-2.9
		c0-1.1,0.2-2,0.7-2.8c0.4-0.8,1-1.4,1.8-1.9c0.8-0.4,1.7-0.7,2.8-0.7s2,0.2,2.8,0.7c0.8,0.4,1.4,1.1,1.8,1.9
		c0.4,0.8,0.7,1.8,0.7,2.8c0,1.1-0.2,2.1-0.7,2.9c-0.4,0.8-1,1.4-1.8,1.9C90.2,85.2,89.3,85.4,88.2,85.4z M88.2,83.4
		c0.8,0,1.4-0.3,1.9-0.8c0.5-0.6,0.7-1.4,0.7-2.5c0-1.1-0.2-2-0.7-2.5c-0.5-0.6-1.1-0.8-1.9-0.8c-0.8,0-1.4,0.3-1.9,0.8
		c-0.5,0.5-0.7,1.4-0.7,2.5c0,1.1,0.2,2,0.7,2.5C86.8,83.1,87.4,83.4,88.2,83.4z M95.6,89V74.9h2.6v1.6c0.3-0.6,0.7-1,1.3-1.3
		c0.6-0.3,1.3-0.5,2-0.5c0.9,0,1.7,0.2,2.4,0.7c0.7,0.4,1.2,1.1,1.6,1.9c0.4,0.8,0.6,1.7,0.6,2.8c0,1.1-0.2,2.1-0.6,2.9
		c-0.4,0.8-0.9,1.4-1.6,1.9c-0.7,0.4-1.5,0.7-2.4,0.7c-0.7,0-1.4-0.2-2-0.5c-0.6-0.3-1-0.8-1.3-1.3V89H95.6z M100.9,83.4
		c0.8,0,1.4-0.3,1.9-0.8c0.5-0.6,0.7-1.4,0.7-2.5c0-1.1-0.2-2-0.7-2.5c-0.5-0.6-1.1-0.8-1.9-0.8c-0.8,0-1.4,0.3-1.9,0.8
		c-0.5,0.5-0.7,1.4-0.7,2.5c0,1.1,0.2,2,0.7,2.5C99.4,83.1,100.1,83.4,100.9,83.4z M121.2,85.4c-1.5,0-2.9-0.3-4-0.9
		c-1.1-0.6-1.9-1.5-2.5-2.7c-0.6-1.2-0.9-2.5-0.9-4.1c0-1.6,0.3-2.9,0.9-4.1c0.6-1.1,1.4-2,2.5-2.6c1.1-0.6,2.4-0.9,4-0.9
		c1,0,1.9,0.2,2.8,0.5c0.9,0.3,1.6,0.8,2.2,1.3l-0.9,2.2c-0.6-0.5-1.3-0.9-1.9-1.2c-0.7-0.3-1.4-0.4-2.1-0.4c-1.5,0-2.7,0.5-3.4,1.4
		c-0.8,0.9-1.2,2.2-1.2,3.9c0,1.7,0.4,3,1.2,3.9c0.8,0.9,1.9,1.4,3.4,1.4c0.8,0,1.5-0.1,2.1-0.4c0.7-0.3,1.3-0.6,1.9-1.2l0.9,2.2
		c-0.6,0.6-1.3,1-2.2,1.3C123.1,85.2,122.2,85.4,121.2,85.4z M132.3,85.4c-1.1,0-2-0.2-2.8-0.7c-0.8-0.4-1.4-1.1-1.8-1.9
		c-0.4-0.8-0.7-1.8-0.7-2.9c0-1.1,0.2-2,0.7-2.8c0.4-0.8,1-1.4,1.8-1.9c0.8-0.4,1.7-0.7,2.8-0.7s2,0.2,2.8,0.7
		c0.8,0.4,1.4,1.1,1.8,1.9c0.4,0.8,0.7,1.8,0.7,2.8c0,1.1-0.2,2.1-0.7,2.9c-0.4,0.8-1,1.4-1.8,1.9C134.3,85.2,133.3,85.4,132.3,85.4
		z M132.3,83.4c0.8,0,1.4-0.3,1.9-0.8c0.5-0.6,0.7-1.4,0.7-2.5c0-1.1-0.2-2-0.7-2.5c-0.5-0.6-1.1-0.8-1.9-0.8s-1.4,0.3-1.9,0.8
		c-0.5,0.5-0.7,1.4-0.7,2.5c0,1.1,0.2,2,0.7,2.5C130.8,83.1,131.5,83.4,132.3,83.4z M139.8,85.2V74.9h2.6v1.6c0.3-0.6,0.7-1,1.3-1.3
		c0.5-0.3,1.2-0.5,1.9-0.5c1.5,0,2.6,0.7,3,2c0.3-0.6,0.8-1.1,1.4-1.5c0.6-0.4,1.3-0.5,2.1-0.5c2.3,0,3.5,1.4,3.5,4.2v6.3h-2.6V79
		c0-0.8-0.1-1.4-0.4-1.7c-0.3-0.4-0.7-0.5-1.3-0.5c-0.7,0-1.2,0.2-1.6,0.7c-0.4,0.5-0.6,1.1-0.6,2v5.7h-2.6V79
		c0-0.8-0.1-1.4-0.4-1.7c-0.3-0.4-0.7-0.5-1.3-0.5c-0.7,0-1.2,0.2-1.6,0.7c-0.4,0.5-0.6,1.1-0.6,2v5.7H139.8z M158.3,85.2V74.9h2.6
		v1.6c0.3-0.6,0.7-1,1.3-1.3c0.5-0.3,1.2-0.5,1.9-0.5c1.5,0,2.6,0.7,3,2c0.3-0.6,0.8-1.1,1.4-1.5c0.6-0.4,1.3-0.5,2.1-0.5
		c2.3,0,3.5,1.4,3.5,4.2v6.3h-2.6V79c0-0.8-0.1-1.4-0.4-1.7c-0.3-0.4-0.7-0.5-1.3-0.5c-0.7,0-1.2,0.2-1.6,0.7
		c-0.4,0.5-0.6,1.1-0.6,2v5.7h-2.6V79c0-0.8-0.1-1.4-0.4-1.7c-0.3-0.4-0.7-0.5-1.3-0.5c-0.7,0-1.2,0.2-1.6,0.7
		c-0.4,0.5-0.6,1.1-0.6,2v5.7H158.3z M180.5,85.4c-2.5,0-3.8-1.4-3.8-4.3v-6.3h2.6v6.3c0,0.7,0.1,1.3,0.4,1.6
		c0.3,0.4,0.8,0.5,1.4,0.5c0.7,0,1.3-0.2,1.7-0.7c0.4-0.5,0.7-1.1,0.7-1.9v-5.8h2.6v10.3h-2.6v-1.5
		C182.9,84.8,181.9,85.4,180.5,85.4z M188.9,85.2V74.9h2.6v1.6c0.4-0.6,0.8-1,1.4-1.3c0.6-0.3,1.3-0.5,2-0.5c2.4,0,3.6,1.4,3.6,4.2
		v6.3H196V79c0-0.8-0.2-1.4-0.5-1.8c-0.3-0.4-0.8-0.5-1.4-0.5c-0.8,0-1.4,0.2-1.9,0.7c-0.4,0.5-0.7,1.1-0.7,1.9v5.8H188.9z
		 M201.1,72.7v-2.6h3v2.6H201.1z M201.3,85.2V74.9h2.6v10.3H201.3z M211.4,85.4c-1.1,0-2-0.2-2.8-0.7c-0.8-0.4-1.4-1.1-1.9-1.9
		c-0.4-0.8-0.7-1.8-0.7-2.9c0-1.1,0.2-2,0.7-2.8c0.4-0.8,1.1-1.4,1.9-1.8c0.8-0.4,1.7-0.7,2.8-0.7c0.7,0,1.3,0.1,2,0.3
		c0.6,0.2,1.2,0.5,1.6,0.9l-0.8,1.8c-0.4-0.3-0.8-0.6-1.2-0.7c-0.4-0.2-0.9-0.3-1.3-0.3c-0.9,0-1.6,0.3-2.1,0.9
		c-0.5,0.6-0.7,1.4-0.7,2.4c0,1,0.2,1.9,0.7,2.5c0.5,0.6,1.2,0.9,2.1,0.9c0.4,0,0.8-0.1,1.3-0.3c0.5-0.2,0.9-0.4,1.2-0.8l0.8,1.9
		c-0.4,0.4-1,0.7-1.6,0.9C212.7,85.3,212.1,85.4,211.4,85.4z M219.9,85.4c-0.7,0-1.4-0.1-2-0.4c-0.6-0.3-1-0.7-1.4-1.2
		c-0.3-0.5-0.5-1-0.5-1.7c0-0.8,0.2-1.4,0.6-1.8c0.4-0.4,1-0.8,1.9-1c0.9-0.2,2.1-0.3,3.6-0.3h0.7v-0.4c0-0.7-0.2-1.2-0.5-1.5
		c-0.3-0.3-0.8-0.5-1.6-0.5c-0.6,0-1.2,0.1-1.8,0.3c-0.6,0.2-1.2,0.4-1.8,0.8l-0.8-1.8c0.4-0.3,0.8-0.5,1.3-0.7
		c0.5-0.2,1-0.3,1.6-0.4c0.6-0.1,1.1-0.2,1.6-0.2c1.5,0,2.6,0.4,3.4,1.1c0.7,0.7,1.1,1.8,1.1,3.2v6.2h-2.5v-1.6
		c-0.2,0.6-0.6,1-1.1,1.4C221.3,85.2,220.7,85.4,219.9,85.4z M220.5,83.6c0.7,0,1.3-0.2,1.7-0.7c0.5-0.5,0.7-1.1,0.7-1.8v-0.5h-0.7
		c-1.3,0-2.2,0.1-2.8,0.3c-0.5,0.2-0.8,0.6-0.8,1.1c0,0.5,0.2,0.8,0.5,1.1C219.5,83.4,219.9,83.6,220.5,83.6z M232.8,85.4
		c-2.7,0-4.1-1.4-4.1-4.1v-4.5h-2v-2h2v-3.1h2.6v3.1h3.1v2h-3.1v4.3c0,0.7,0.1,1.2,0.4,1.5c0.3,0.3,0.8,0.5,1.4,0.5
		c0.2,0,0.4,0,0.6-0.1c0.2-0.1,0.4-0.1,0.7-0.2l0.4,1.9c-0.3,0.1-0.6,0.3-1,0.3C233.5,85.4,233.2,85.4,232.8,85.4z M236,72.7v-2.6h3
		v2.6H236z M236.2,85.2V74.9h2.6v10.3H236.2z M246.3,85.4c-1.1,0-2-0.2-2.8-0.7c-0.8-0.4-1.4-1.1-1.8-1.9c-0.4-0.8-0.7-1.8-0.7-2.9
		c0-1.1,0.2-2,0.7-2.8c0.4-0.8,1-1.4,1.8-1.9c0.8-0.4,1.7-0.7,2.8-0.7s2,0.2,2.8,0.7c0.8,0.4,1.4,1.1,1.8,1.9
		c0.4,0.8,0.7,1.8,0.7,2.8c0,1.1-0.2,2.1-0.7,2.9c-0.4,0.8-1,1.4-1.8,1.9C248.3,85.2,247.3,85.4,246.3,85.4z M246.3,83.4
		c0.8,0,1.4-0.3,1.9-0.8c0.5-0.6,0.7-1.4,0.7-2.5c0-1.1-0.2-2-0.7-2.5c-0.5-0.6-1.1-0.8-1.9-0.8s-1.4,0.3-1.9,0.8
		c-0.5,0.5-0.7,1.4-0.7,2.5c0,1.1,0.2,2,0.7,2.5C244.8,83.1,245.5,83.4,246.3,83.4z M253.7,85.2V74.9h2.6v1.6c0.4-0.6,0.8-1,1.4-1.3
		c0.6-0.3,1.3-0.5,2-0.5c2.4,0,3.6,1.4,3.6,4.2v6.3h-2.6V79c0-0.8-0.2-1.4-0.5-1.8c-0.3-0.4-0.8-0.5-1.4-0.5c-0.8,0-1.4,0.2-1.9,0.7
		c-0.4,0.5-0.7,1.1-0.7,1.9v5.8H253.7z M272,85.2V70.3h6.5c1.6,0,2.9,0.4,3.8,1.2c0.9,0.8,1.3,2,1.3,3.4c0,1.5-0.4,2.6-1.3,3.4
		c-0.9,0.8-2.1,1.2-3.8,1.2h-3.8v5.6H272z M274.7,77.5h3.3c1.9,0,2.9-0.8,2.9-2.5c0-1.7-1-2.5-2.9-2.5h-3.3V77.5z M289.1,85.4
		c-1.2,0-2.1-0.3-2.7-1c-0.6-0.7-0.9-1.7-0.9-3V70.3h2.6v11c0,1.3,0.5,1.9,1.6,1.9c0.2,0,0.3,0,0.5,0c0.2,0,0.3,0,0.4-0.1l0,2.1
		C290.1,85.3,289.6,85.4,289.1,85.4z M295.6,85.4c-0.7,0-1.4-0.1-2-0.4c-0.6-0.3-1-0.7-1.4-1.2c-0.3-0.5-0.5-1-0.5-1.7
		c0-0.8,0.2-1.4,0.6-1.8c0.4-0.4,1-0.8,1.9-1c0.9-0.2,2.1-0.3,3.6-0.3h0.7v-0.4c0-0.7-0.2-1.2-0.5-1.5c-0.3-0.3-0.8-0.5-1.6-0.5
		c-0.6,0-1.2,0.1-1.8,0.3c-0.6,0.2-1.2,0.4-1.8,0.8l-0.8-1.8c0.4-0.3,0.8-0.5,1.3-0.7c0.5-0.2,1-0.3,1.6-0.4
		c0.6-0.1,1.1-0.2,1.6-0.2c1.5,0,2.6,0.4,3.4,1.1c0.7,0.7,1.1,1.8,1.1,3.2v6.2h-2.5v-1.6c-0.2,0.6-0.6,1-1.1,1.4
		C297,85.2,296.4,85.4,295.6,85.4z M296.2,83.6c0.7,0,1.3-0.2,1.7-0.7c0.5-0.5,0.7-1.1,0.7-1.8v-0.5h-0.7c-1.3,0-2.2,0.1-2.8,0.3
		c-0.5,0.2-0.8,0.6-0.8,1.1c0,0.5,0.2,0.8,0.5,1.1C295.2,83.4,295.6,83.6,296.2,83.6z M303.8,85.2V74.9h2.6v1.6
		c0.4-0.6,0.8-1,1.4-1.3c0.6-0.3,1.3-0.5,2-0.5c2.4,0,3.6,1.4,3.6,4.2v6.3h-2.6V79c0-0.8-0.2-1.4-0.5-1.8c-0.3-0.4-0.8-0.5-1.4-0.5
		c-0.8,0-1.4,0.2-1.9,0.7c-0.5,0.5-0.7,1.1-0.7,1.9v5.8H303.8z"/>
	<path class="st4" d="M36.9,101.3l3.3,6.6l7.3,1.1l-5.3,5.1l1.2,7.2l-6.5-3.4l-6.5,3.4l1.2-7.2l-5.3-5.1l7.3-1.1L36.9,101.3z"/>
	<path class="st4" d="M60.4,101.3l3.3,6.6l7.3,1.1l-5.3,5.1l1.2,7.2l-6.5-3.4l-6.5,3.4l1.2-7.2l-5.3-5.1l7.3-1.1L60.4,101.3z"/>
	<path class="st4" d="M83.8,101.3l3.3,6.6l7.3,1.1l-5.3,5.1l1.2,7.2l-6.5-3.4l-6.5,3.4l1.2-7.2l-5.3-5.1l7.3-1.1L83.8,101.3z"/>
	<path class="st4" d="M107.2,101.3l3.3,6.6l7.3,1.1l-5.3,5.1l1.2,7.2l-6.5-3.4l-6.5,3.4l1.2-7.2l-5.3-5.1l7.3-1.1L107.2,101.3z"/>
	<path class="st5" d="M130.7,101.3l3.3,6.6l7.3,1.1L136,114l1.2,7.2l-6.5-3.4l-6.5,3.4l1.2-7.2l-5.3-5.1l7.3-1.1L130.7,101.3z"/>
</g>
</svg>
