<svg xmlns="http://www.w3.org/2000/svg" fill="none" viewBox="121.91 47.28 375.07 152.55">
<g filter="url(#filter0_d_4620_157)">
<path d="M121.909 65.2819C121.909 55.3407 129.968 47.2819 139.909 47.2819H478.977C488.918 47.2819 496.977 55.3407 496.977 65.2819V168.959C496.977 178.9 488.918 186.959 478.977 186.959H160.416C156.373 186.959 152.47 188.438 149.443 191.116L143.267 196.58C134.976 203.915 121.909 198.029 121.909 186.959V186.959V65.2819Z" fill="white"/>
</g>
<rect x="391.489" y="60.0855" width="82.0461" height="32.5913" rx="7.03252" fill="#3ADAD9"/>
<path d="M409.632 82.5775V68.53H414.374C416.646 68.53 418.399 69.1344 419.635 70.3432C420.87 71.5387 421.488 73.2723 421.488 75.5438C421.488 77.8153 420.87 79.5554 419.635 80.7642C418.399 81.973 416.646 82.5775 414.374 82.5775H409.632ZM411.266 81.1827H414.255C417.921 81.1827 419.754 79.303 419.754 75.5438C419.754 71.7978 417.921 69.9248 414.255 69.9248H411.266V81.1827ZM428.226 82.7568C427.283 82.7568 426.466 82.5509 425.775 82.1391C425.085 81.7273 424.547 81.1495 424.161 80.4056C423.789 79.6484 423.603 78.7584 423.603 77.7356C423.603 76.7127 423.789 75.8294 424.161 75.0855C424.547 74.3283 425.085 73.7438 425.775 73.332C426.466 72.9202 427.283 72.7143 428.226 72.7143C429.156 72.7143 429.966 72.9202 430.657 73.332C431.361 73.7438 431.899 74.3283 432.271 75.0855C432.656 75.8294 432.849 76.7127 432.849 77.7356C432.849 78.7584 432.656 79.6484 432.271 80.4056C431.899 81.1495 431.361 81.7273 430.657 82.1391C429.966 82.5509 429.156 82.7568 428.226 82.7568ZM428.226 81.4616C429.129 81.4616 429.853 81.1428 430.398 80.5052C430.943 79.8543 431.215 78.9311 431.215 77.7356C431.215 76.5268 430.943 75.6035 430.398 74.9659C429.853 74.3283 429.129 74.0095 428.226 74.0095C427.31 74.0095 426.579 74.3283 426.034 74.9659C425.503 75.6035 425.237 76.5268 425.237 77.7356C425.237 78.9311 425.503 79.8543 426.034 80.5052C426.579 81.1428 427.31 81.4616 428.226 81.4616ZM435.273 82.5775V72.8937H436.847V74.5475C437.166 73.9364 437.618 73.4782 438.202 73.1726C438.787 72.8671 439.444 72.7143 440.175 72.7143C442.473 72.7143 443.622 73.9896 443.622 76.54V82.5775H442.008V76.6397C442.008 75.7364 441.829 75.0788 441.47 74.667C441.125 74.242 440.567 74.0294 439.796 74.0294C438.906 74.0294 438.195 74.3084 437.664 74.8663C437.146 75.4109 436.887 76.1415 436.887 77.0581V82.5775H435.273ZM450.962 82.7568C449.434 82.7568 448.225 82.3118 447.335 81.4218C446.445 80.5185 446 79.2964 446 77.7555C446 76.7592 446.199 75.8825 446.598 75.1253C446.996 74.3549 447.541 73.7638 448.232 73.352C448.936 72.9269 449.746 72.7143 450.663 72.7143C451.978 72.7143 453.007 73.1394 453.751 73.9896C454.495 74.8264 454.867 75.9821 454.867 77.4566V78.0743H447.574C447.627 79.1768 447.946 80.0204 448.531 80.6048C449.115 81.176 449.925 81.4616 450.962 81.4616C451.546 81.4616 452.104 81.3753 452.635 81.2026C453.167 81.0166 453.671 80.7177 454.15 80.3059L454.708 81.4417C454.269 81.8535 453.711 82.1789 453.034 82.418C452.356 82.6439 451.666 82.7568 450.962 82.7568ZM450.703 73.9099C449.786 73.9099 449.062 74.1955 448.531 74.7667C447.999 75.3379 447.687 76.0884 447.594 77.0182H453.472C453.432 76.0353 453.173 75.2714 452.695 74.7268C452.23 74.1822 451.566 73.9099 450.703 73.9099Z" fill="white"/>
<path d="M149.233 102.529V89.3079H151.183V100.86H157.728V102.529H149.233ZM162.454 102.698C160.241 102.698 159.134 101.466 159.134 99.0034V93.3774H161.029V99.0222C161.029 99.7598 161.179 100.304 161.479 100.654C161.779 101.004 162.254 101.179 162.904 101.179C163.617 101.179 164.192 100.941 164.629 100.466C165.079 99.9911 165.304 99.3535 165.304 98.5533V93.3774H167.198V102.529H165.361V101.066C165.061 101.604 164.66 102.01 164.16 102.285C163.66 102.56 163.091 102.698 162.454 102.698ZM173.9 102.698C172.962 102.698 172.149 102.504 171.462 102.116C170.787 101.716 170.262 101.16 169.886 100.447C169.511 99.7223 169.324 98.8721 169.324 97.897C169.324 96.4467 169.736 95.3027 170.562 94.4651C171.387 93.6274 172.499 93.2086 173.9 93.2086C174.475 93.2086 175.044 93.3086 175.606 93.5087C176.169 93.7087 176.631 93.9838 176.994 94.3338L176.394 95.6653C176.044 95.3403 175.656 95.1027 175.231 94.9527C174.819 94.7902 174.425 94.7089 174.05 94.7089C173.162 94.7089 172.474 94.9902 171.987 95.5528C171.512 96.1029 171.274 96.8905 171.274 97.9157C171.274 98.9409 171.512 99.7473 171.987 100.335C172.474 100.91 173.162 101.198 174.05 101.198C174.425 101.198 174.819 101.123 175.231 100.973C175.656 100.81 176.044 100.566 176.394 100.241L176.994 101.591C176.631 101.929 176.163 102.198 175.588 102.398C175.025 102.598 174.462 102.698 173.9 102.698ZM179.669 105.905L181.301 102.285L177.475 93.3774H179.501L182.314 100.335L185.164 93.3774H187.114L181.657 105.905H179.669ZM193.607 102.529V89.3079H195.089L202.665 99.3035V89.3079H204.466V102.529H203.022L195.408 92.496V102.529H193.607ZM207.169 91.2583V89.2892H209.382V91.2583H207.169ZM207.338 102.529V93.3774H209.232V102.529H207.338ZM214.824 102.698C214.186 102.698 213.617 102.573 213.117 102.323C212.617 102.073 212.217 101.735 211.917 101.31C211.629 100.885 211.485 100.404 211.485 99.8661C211.485 99.1909 211.654 98.6596 211.992 98.272C212.342 97.8845 212.911 97.6032 213.698 97.4281C214.498 97.2531 215.574 97.1656 216.924 97.1656H217.562V96.678C217.562 95.9654 217.412 95.4528 217.111 95.1402C216.811 94.8277 216.318 94.6714 215.63 94.6714C215.105 94.6714 214.58 94.7526 214.055 94.9152C213.53 95.0652 212.992 95.309 212.442 95.6466L211.861 94.3151C212.336 93.9775 212.929 93.7087 213.642 93.5087C214.355 93.3086 215.036 93.2086 215.686 93.2086C216.936 93.2086 217.862 93.5087 218.462 94.1088C219.062 94.6964 219.362 95.6216 219.362 96.8843V102.529H217.58V101.01C217.355 101.535 217.005 101.948 216.53 102.248C216.055 102.548 215.486 102.698 214.824 102.698ZM215.199 101.348C215.874 101.348 216.436 101.11 216.886 100.635C217.337 100.16 217.562 99.5598 217.562 98.8346V98.3283H216.943C216.03 98.3283 215.311 98.3721 214.786 98.4596C214.273 98.5471 213.905 98.6971 213.68 98.9096C213.467 99.1097 213.361 99.391 213.361 99.7536C213.361 100.229 213.523 100.616 213.848 100.916C214.173 101.204 214.624 101.348 215.199 101.348ZM221.971 102.529V93.3774H223.808V94.8964C224.121 94.3463 224.546 93.9275 225.084 93.6399C225.634 93.3524 226.246 93.2086 226.922 93.2086C229.084 93.2086 230.166 94.4338 230.166 96.8843V102.529H228.272V96.9968C228.272 96.2092 228.116 95.6341 227.803 95.2715C227.503 94.9089 227.028 94.7276 226.378 94.7276C225.615 94.7276 225.002 94.9714 224.54 95.459C224.09 95.9341 223.865 96.5655 223.865 97.3531V102.529H221.971ZM235.701 102.698C235.064 102.698 234.495 102.573 233.995 102.323C233.495 102.073 233.095 101.735 232.795 101.31C232.507 100.885 232.363 100.404 232.363 99.8661C232.363 99.1909 232.532 98.6596 232.87 98.272C233.22 97.8845 233.789 97.6032 234.576 97.4281C235.376 97.2531 236.451 97.1656 237.802 97.1656H238.439V96.678C238.439 95.9654 238.289 95.4528 237.989 95.1402C237.689 94.8277 237.195 94.6714 236.508 94.6714C235.983 94.6714 235.458 94.7526 234.932 94.9152C234.407 95.0652 233.87 95.309 233.32 95.6466L232.738 94.3151C233.213 93.9775 233.807 93.7087 234.52 93.5087C235.233 93.3086 235.914 93.2086 236.564 93.2086C237.814 93.2086 238.739 93.5087 239.34 94.1088C239.94 94.6964 240.24 95.6216 240.24 96.8843V102.529H238.458V101.01C238.233 101.535 237.883 101.948 237.408 102.248C236.933 102.548 236.364 102.698 235.701 102.698ZM236.076 101.348C236.752 101.348 237.314 101.11 237.764 100.635C238.214 100.16 238.439 99.5598 238.439 98.8346V98.3283H237.82C236.908 98.3283 236.189 98.3721 235.664 98.4596C235.151 98.5471 234.782 98.6971 234.557 98.9096C234.345 99.1097 234.239 99.391 234.239 99.7536C234.239 100.229 234.401 100.616 234.726 100.916C235.051 101.204 235.501 101.348 236.076 101.348Z" fill="#6C71A1"/>
<path d="M149.32 132.464V117.591H154.847C157.337 117.591 159.257 118.231 160.607 119.511C161.971 120.79 162.653 122.626 162.653 125.017C162.653 127.394 161.971 129.23 160.607 130.524C159.257 131.817 157.337 132.464 154.847 132.464H149.32ZM152.02 130.228H154.678C158.11 130.228 159.826 128.491 159.826 125.017C159.826 121.557 158.11 119.827 154.678 119.827H152.02V130.228ZM170.221 132.675C169.054 132.675 168.048 132.457 167.204 132.021C166.36 131.585 165.706 130.967 165.242 130.165C164.792 129.363 164.567 128.414 164.567 127.317C164.567 126.248 164.785 125.312 165.221 124.511C165.671 123.709 166.283 123.083 167.057 122.633C167.844 122.169 168.737 121.937 169.736 121.937C171.199 121.937 172.352 122.401 173.196 123.329C174.054 124.258 174.483 125.523 174.483 127.127V127.907H167.099C167.296 129.75 168.351 130.671 170.264 130.671C170.84 130.671 171.417 130.587 171.994 130.418C172.57 130.235 173.098 129.954 173.576 129.574L174.314 131.346C173.822 131.754 173.203 132.078 172.458 132.317C171.712 132.556 170.967 132.675 170.221 132.675ZM169.842 123.73C169.068 123.73 168.442 123.969 167.964 124.447C167.486 124.926 167.197 125.573 167.099 126.388H172.289C172.233 125.53 171.994 124.876 171.572 124.426C171.164 123.962 170.587 123.73 169.842 123.73ZM179.445 132.464L174.972 122.148H177.778L180.647 129.363L183.622 122.148H186.259L181.723 132.464H179.445ZM192.411 132.675C191.243 132.675 190.238 132.457 189.394 132.021C188.55 131.585 187.896 130.967 187.432 130.165C186.982 129.363 186.757 128.414 186.757 127.317C186.757 126.248 186.975 125.312 187.411 124.511C187.861 123.709 188.473 123.083 189.246 122.633C190.034 122.169 190.927 121.937 191.926 121.937C193.388 121.937 194.542 122.401 195.386 123.329C196.244 124.258 196.673 125.523 196.673 127.127V127.907H189.288C189.485 129.75 190.54 130.671 192.453 130.671C193.03 130.671 193.606 130.587 194.183 130.418C194.76 130.235 195.287 129.954 195.765 129.574L196.504 131.346C196.012 131.754 195.393 132.078 194.647 132.317C193.902 132.556 193.156 132.675 192.411 132.675ZM192.031 123.73C191.258 123.73 190.632 123.969 190.153 124.447C189.675 124.926 189.387 125.573 189.288 126.388H194.478C194.422 125.53 194.183 124.876 193.761 124.426C193.353 123.962 192.777 123.73 192.031 123.73ZM202.348 132.675C201.124 132.675 200.217 132.345 199.626 131.684C199.049 131.009 198.761 130.024 198.761 128.73V117.591H201.398V128.604C201.398 129.869 201.933 130.502 203.002 130.502C203.156 130.502 203.311 130.495 203.466 130.481C203.621 130.467 203.768 130.439 203.909 130.397L203.867 132.486C203.36 132.612 202.854 132.675 202.348 132.675ZM210.1 132.675C209.031 132.675 208.103 132.457 207.315 132.021C206.527 131.585 205.916 130.967 205.48 130.165C205.044 129.349 204.826 128.393 204.826 127.296C204.826 126.199 205.044 125.249 205.48 124.447C205.916 123.646 206.527 123.027 207.315 122.591C208.103 122.155 209.031 121.937 210.1 121.937C211.169 121.937 212.097 122.155 212.885 122.591C213.673 123.027 214.284 123.646 214.72 124.447C215.156 125.249 215.374 126.199 215.374 127.296C215.374 128.393 215.156 129.349 214.72 130.165C214.284 130.967 213.673 131.585 212.885 132.021C212.097 132.457 211.169 132.675 210.1 132.675ZM210.1 130.671C210.888 130.671 211.521 130.39 211.999 129.827C212.477 129.251 212.716 128.407 212.716 127.296C212.716 126.17 212.477 125.334 211.999 124.785C211.521 124.222 210.888 123.941 210.1 123.941C209.312 123.941 208.679 124.222 208.201 124.785C207.723 125.334 207.484 126.17 207.484 127.296C207.484 128.407 207.723 129.251 208.201 129.827C208.679 130.39 209.312 130.671 210.1 130.671ZM217.551 136.262V122.148H220.125V123.793C220.42 123.231 220.863 122.781 221.454 122.443C222.059 122.106 222.741 121.937 223.501 121.937C224.401 121.937 225.188 122.155 225.864 122.591C226.553 123.027 227.087 123.646 227.467 124.447C227.847 125.235 228.037 126.184 228.037 127.296C228.037 128.393 227.847 129.349 227.467 130.165C227.087 130.967 226.56 131.585 225.885 132.021C225.209 132.457 224.415 132.675 223.501 132.675C222.769 132.675 222.108 132.521 221.517 132.211C220.941 131.888 220.498 131.459 220.188 130.924V136.262H217.551ZM222.762 130.671C223.55 130.671 224.183 130.39 224.661 129.827C225.139 129.251 225.378 128.407 225.378 127.296C225.378 126.17 225.139 125.334 224.661 124.785C224.183 124.222 223.55 123.941 222.762 123.941C221.975 123.941 221.342 124.222 220.863 124.785C220.385 125.334 220.146 126.17 220.146 127.296C220.146 128.407 220.385 129.251 220.863 129.827C221.342 130.39 221.975 130.671 222.762 130.671ZM243.061 132.675C241.514 132.675 240.185 132.366 239.074 131.747C237.976 131.114 237.133 130.228 236.542 129.089C235.951 127.936 235.656 126.578 235.656 125.017C235.656 123.456 235.951 122.106 236.542 120.966C237.133 119.827 237.976 118.948 239.074 118.329C240.185 117.696 241.514 117.38 243.061 117.38C244.06 117.38 245.002 117.534 245.888 117.844C246.788 118.153 247.527 118.596 248.103 119.173L247.217 121.325C246.584 120.79 245.937 120.404 245.276 120.165C244.615 119.911 243.905 119.785 243.145 119.785C241.64 119.785 240.494 120.242 239.706 121.156C238.919 122.056 238.525 123.343 238.525 125.017C238.525 126.691 238.919 127.985 239.706 128.899C240.494 129.813 241.64 130.27 243.145 130.27C243.905 130.27 244.615 130.151 245.276 129.912C245.937 129.659 246.584 129.265 247.217 128.73L248.103 130.882C247.527 131.445 246.788 131.888 245.888 132.211C245.002 132.521 244.06 132.675 243.061 132.675ZM254.17 132.675C253.101 132.675 252.173 132.457 251.385 132.021C250.597 131.585 249.986 130.967 249.55 130.165C249.114 129.349 248.896 128.393 248.896 127.296C248.896 126.199 249.114 125.249 249.55 124.447C249.986 123.646 250.597 123.027 251.385 122.591C252.173 122.155 253.101 121.937 254.17 121.937C255.239 121.937 256.167 122.155 256.955 122.591C257.743 123.027 258.354 123.646 258.79 124.447C259.226 125.249 259.444 126.199 259.444 127.296C259.444 128.393 259.226 129.349 258.79 130.165C258.354 130.967 257.743 131.585 256.955 132.021C256.167 132.457 255.239 132.675 254.17 132.675ZM254.17 130.671C254.958 130.671 255.591 130.39 256.069 129.827C256.547 129.251 256.786 128.407 256.786 127.296C256.786 126.17 256.547 125.334 256.069 124.785C255.591 124.222 254.958 123.941 254.17 123.941C253.382 123.941 252.749 124.222 252.271 124.785C251.793 125.334 251.554 126.17 251.554 127.296C251.554 128.407 251.793 129.251 252.271 129.827C252.749 130.39 253.382 130.671 254.17 130.671ZM261.663 132.464V122.148H264.237V123.73C264.547 123.167 264.976 122.731 265.524 122.422C266.073 122.099 266.706 121.937 267.423 121.937C268.97 121.937 269.983 122.612 270.461 123.962C270.784 123.329 271.249 122.837 271.853 122.485C272.458 122.12 273.147 121.937 273.921 121.937C276.242 121.937 277.402 123.35 277.402 126.177V132.464H274.765V126.283C274.765 125.495 274.631 124.919 274.364 124.553C274.111 124.187 273.675 124.004 273.056 124.004C272.367 124.004 271.825 124.25 271.431 124.743C271.038 125.221 270.841 125.889 270.841 126.747V132.464H268.204V126.283C268.204 125.495 268.07 124.919 267.803 124.553C267.549 124.187 267.121 124.004 266.516 124.004C265.827 124.004 265.285 124.25 264.891 124.743C264.497 125.221 264.3 125.889 264.3 126.747V132.464H261.663ZM280.165 132.464V122.148H282.739V123.73C283.048 123.167 283.477 122.731 284.026 122.422C284.574 122.099 285.207 121.937 285.924 121.937C287.472 121.937 288.484 122.612 288.963 123.962C289.286 123.329 289.75 122.837 290.355 122.485C290.96 122.12 291.649 121.937 292.423 121.937C294.743 121.937 295.904 123.35 295.904 126.177V132.464H293.266V126.283C293.266 125.495 293.133 124.919 292.866 124.553C292.612 124.187 292.176 124.004 291.558 124.004C290.868 124.004 290.327 124.25 289.933 124.743C289.539 125.221 289.342 125.889 289.342 126.747V132.464H286.705V126.283C286.705 125.495 286.571 124.919 286.304 124.553C286.051 124.187 285.622 124.004 285.017 124.004C284.328 124.004 283.787 124.25 283.393 124.743C282.999 125.221 282.802 125.889 282.802 126.747V132.464H280.165ZM302.358 132.675C299.827 132.675 298.561 131.255 298.561 128.414V122.148H301.198V128.456C301.198 129.187 301.346 129.729 301.641 130.08C301.937 130.432 302.408 130.608 303.055 130.608C303.758 130.608 304.335 130.369 304.785 129.891C305.235 129.398 305.46 128.751 305.46 127.95V122.148H308.097V132.464H305.523V130.924C304.834 132.092 303.779 132.675 302.358 132.675ZM310.842 132.464V122.148H313.416V123.751C313.767 123.16 314.239 122.71 314.829 122.401C315.434 122.092 316.109 121.937 316.855 121.937C319.288 121.937 320.505 123.35 320.505 126.177V132.464H317.867V126.304C317.867 125.502 317.713 124.919 317.403 124.553C317.108 124.187 316.644 124.004 316.011 124.004C315.237 124.004 314.618 124.25 314.154 124.743C313.704 125.221 313.479 125.861 313.479 126.663V132.464H310.842ZM323.014 119.933V117.359H325.968V119.933H323.014ZM323.183 132.464V122.148H325.82V132.464H323.183ZM333.329 132.675C332.246 132.675 331.303 132.457 330.501 132.021C329.7 131.571 329.081 130.938 328.645 130.123C328.209 129.307 327.991 128.35 327.991 127.253C327.991 126.156 328.209 125.214 328.645 124.426C329.081 123.625 329.7 123.013 330.501 122.591C331.303 122.155 332.246 121.937 333.329 121.937C333.99 121.937 334.644 122.042 335.291 122.253C335.938 122.464 336.472 122.76 336.894 123.139L336.113 124.975C335.748 124.651 335.333 124.405 334.869 124.236C334.419 124.068 333.983 123.983 333.561 123.983C332.646 123.983 331.936 124.272 331.43 124.848C330.937 125.411 330.691 126.22 330.691 127.274C330.691 128.315 330.937 129.138 331.43 129.743C331.936 130.334 332.646 130.629 333.561 130.629C333.969 130.629 334.405 130.545 334.869 130.376C335.333 130.207 335.748 129.954 336.113 129.616L336.894 131.473C336.472 131.839 335.931 132.134 335.27 132.359C334.623 132.57 333.976 132.675 333.329 132.675ZM341.847 132.675C341.101 132.675 340.433 132.535 339.842 132.254C339.266 131.958 338.809 131.564 338.471 131.072C338.148 130.58 337.986 130.024 337.986 129.405C337.986 128.646 338.183 128.048 338.577 127.612C338.97 127.162 339.61 126.838 340.496 126.642C341.383 126.445 342.571 126.346 344.062 126.346H344.8V125.903C344.8 125.2 344.646 124.694 344.336 124.384C344.027 124.075 343.506 123.92 342.775 123.92C342.198 123.92 341.608 124.011 341.003 124.194C340.398 124.363 339.786 124.63 339.167 124.996L338.408 123.203C338.773 122.949 339.202 122.731 339.695 122.549C340.201 122.352 340.729 122.204 341.277 122.106C341.84 121.993 342.367 121.937 342.859 121.937C344.364 121.937 345.483 122.288 346.214 122.992C346.945 123.681 347.311 124.757 347.311 126.22V132.464H344.843V130.819C344.603 131.396 344.224 131.853 343.703 132.19C343.183 132.514 342.564 132.675 341.847 132.675ZM342.395 130.861C343.084 130.861 343.654 130.622 344.104 130.144C344.568 129.666 344.8 129.061 344.8 128.329V127.865H344.083C342.761 127.865 341.84 127.971 341.319 128.182C340.813 128.379 340.56 128.744 340.56 129.279C340.56 129.743 340.721 130.123 341.045 130.418C341.368 130.713 341.819 130.861 342.395 130.861ZM354.714 132.675C351.985 132.675 350.621 131.325 350.621 128.625V124.131H348.637V122.148H350.621V119.068H353.258V122.148H356.38V124.131H353.258V128.477C353.258 129.152 353.406 129.659 353.701 129.996C353.996 130.334 354.474 130.502 355.136 130.502C355.332 130.502 355.536 130.481 355.747 130.439C355.958 130.383 356.176 130.327 356.401 130.27L356.802 132.211C356.549 132.352 356.226 132.464 355.832 132.549C355.452 132.633 355.079 132.675 354.714 132.675ZM357.916 119.933V117.359H360.87V119.933H357.916ZM358.085 132.464V122.148H360.722V132.464H358.085ZM368.167 132.675C367.098 132.675 366.17 132.457 365.382 132.021C364.594 131.585 363.983 130.967 363.547 130.165C363.111 129.349 362.892 128.393 362.892 127.296C362.892 126.199 363.111 125.249 363.547 124.447C363.983 123.646 364.594 123.027 365.382 122.591C366.17 122.155 367.098 121.937 368.167 121.937C369.236 121.937 370.164 122.155 370.952 122.591C371.739 123.027 372.351 123.646 372.787 124.447C373.223 125.249 373.441 126.199 373.441 127.296C373.441 128.393 373.223 129.349 372.787 130.165C372.351 130.967 371.739 131.585 370.952 132.021C370.164 132.457 369.236 132.675 368.167 132.675ZM368.167 130.671C368.955 130.671 369.587 130.39 370.066 129.827C370.544 129.251 370.783 128.407 370.783 127.296C370.783 126.17 370.544 125.334 370.066 124.785C369.587 124.222 368.955 123.941 368.167 123.941C367.379 123.941 366.746 124.222 366.268 124.785C365.79 125.334 365.551 126.17 365.551 127.296C365.551 128.407 365.79 129.251 366.268 129.827C366.746 130.39 367.379 130.671 368.167 130.671ZM375.618 132.464V122.148H378.192V123.751C378.543 123.16 379.015 122.71 379.605 122.401C380.21 122.092 380.885 121.937 381.631 121.937C384.064 121.937 385.281 123.35 385.281 126.177V132.464H382.643V126.304C382.643 125.502 382.489 124.919 382.179 124.553C381.884 124.187 381.42 124.004 380.787 124.004C380.013 124.004 379.394 124.25 378.93 124.743C378.48 125.221 378.255 125.861 378.255 126.663V132.464H375.618ZM393.899 132.464V117.591H400.355C401.986 117.591 403.245 117.999 404.131 118.814C405.017 119.63 405.46 120.769 405.46 122.232C405.46 123.695 405.017 124.841 404.131 125.671C403.245 126.487 401.986 126.895 400.355 126.895H396.599V132.464H393.899ZM396.599 124.764H399.933C401.874 124.764 402.844 123.92 402.844 122.232C402.844 120.558 401.874 119.722 399.933 119.722H396.599V124.764ZM410.995 132.675C409.771 132.675 408.864 132.345 408.274 131.684C407.697 131.009 407.409 130.024 407.409 128.73V117.591H410.046V128.604C410.046 129.869 410.58 130.502 411.649 130.502C411.804 130.502 411.959 130.495 412.113 130.481C412.268 130.467 412.416 130.439 412.556 130.397L412.514 132.486C412.008 132.612 411.501 132.675 410.995 132.675ZM417.542 132.675C416.797 132.675 416.129 132.535 415.538 132.254C414.961 131.958 414.504 131.564 414.167 131.072C413.843 130.58 413.682 130.024 413.682 129.405C413.682 128.646 413.878 128.048 414.272 127.612C414.666 127.162 415.306 126.838 416.192 126.642C417.078 126.445 418.267 126.346 419.758 126.346H420.496V125.903C420.496 125.2 420.341 124.694 420.032 124.384C419.723 124.075 419.202 123.92 418.471 123.92C417.894 123.92 417.303 124.011 416.699 124.194C416.094 124.363 415.482 124.63 414.863 124.996L414.104 123.203C414.469 122.949 414.898 122.731 415.39 122.549C415.897 122.352 416.424 122.204 416.973 122.106C417.535 121.993 418.063 121.937 418.555 121.937C420.06 121.937 421.178 122.288 421.91 122.992C422.641 123.681 423.007 124.757 423.007 126.22V132.464H420.538V130.819C420.299 131.396 419.919 131.853 419.399 132.19C418.879 132.514 418.26 132.675 417.542 132.675ZM418.091 130.861C418.78 130.861 419.35 130.622 419.8 130.144C420.264 129.666 420.496 129.061 420.496 128.329V127.865H419.779C418.457 127.865 417.535 127.971 417.015 128.182C416.509 128.379 416.255 128.744 416.255 129.279C416.255 129.743 416.417 130.123 416.741 130.418C417.064 130.713 417.514 130.861 418.091 130.861ZM425.683 132.464V122.148H428.257V123.751C428.609 123.16 429.08 122.71 429.671 122.401C430.276 122.092 430.951 121.937 431.696 121.937C434.13 121.937 435.346 123.35 435.346 126.177V132.464H432.709V126.304C432.709 125.502 432.554 124.919 432.245 124.553C431.949 124.187 431.485 124.004 430.852 124.004C430.079 124.004 429.46 124.25 428.996 124.743C428.546 125.221 428.321 125.861 428.321 126.663V132.464H425.683Z" fill="#2B3377"/>
<path d="M158.83 148.548L162.102 155.133L169.42 156.188L164.125 161.314L165.375 168.551L158.83 165.134L152.285 168.551L153.535 161.314L148.24 156.188L155.557 155.133L158.83 148.548Z" fill="#FFCD1A"/>
<path d="M182.272 148.548L185.544 155.133L192.861 156.188L187.566 161.314L188.816 168.551L182.272 165.134L175.727 168.551L176.977 161.314L171.682 156.188L178.999 155.133L182.272 148.548Z" fill="#FFCD1A"/>
<path d="M205.713 148.548L208.986 155.133L216.303 156.188L211.008 161.314L212.258 168.551L205.713 165.134L199.168 168.551L200.418 161.314L195.123 156.188L202.441 155.133L205.713 148.548Z" fill="#FFCD1A"/>
<path d="M229.155 148.548L232.427 155.133L239.745 156.188L234.45 161.314L235.7 168.551L229.155 165.134L222.61 168.551L223.86 161.314L218.565 156.188L225.882 155.133L229.155 148.548Z" fill="#FFCD1A"/>
<path d="M252.597 148.548L255.869 155.133L263.187 156.188L257.892 161.314L259.142 168.551L252.597 165.134L246.052 168.551L247.302 161.314L242.007 156.188L249.324 155.133L252.597 148.548Z" fill="#CCCCCC"/>
<defs>
<filter id="filter0_d_4620_157" x="0.0121613" y="0.398392" width="618.862" height="396.342" filterUnits="userSpaceOnUse" color-interpolation-filters="sRGB">
<feFlood flood-opacity="0" result="BackgroundImageFix"/>
<feColorMatrix in="SourceAlpha" type="matrix" values="0 0 0 0 0 0 0 0 0 0 0 0 0 0 0 0 0 0 127 0" result="hardAlpha"/>
<feOffset dy="75.0135"/>
<feGaussianBlur stdDeviation="60.9485"/>
<feColorMatrix type="matrix" values="0 0 0 0 0 0 0 0 0 0 0 0 0 0 0 0 0 0 0.05 0"/>
<feBlend mode="normal" in2="BackgroundImageFix" result="effect1_dropShadow_4620_157"/>
<feBlend mode="normal" in="SourceGraphic" in2="effect1_dropShadow_4620_157" result="shape"/>
</filter>
</defs>
</svg>