<svg width="200" height="200" viewBox="0 0 200 200" fill="none" xmlns="http://www.w3.org/2000/svg">
<circle cx="100" cy="100" r="100" fill="#FD9B79"/>
<circle cx="39" cy="74" r="9" fill="#F49159"/>
<circle cx="143" cy="136" r="26" fill="#F49159"/>
<path d="M55.928 150V135.648H50.12V133.08H64.808V135.648H59V150H55.928ZM66.7542 135.744V132.816H70.1142V135.744H66.7542ZM66.9462 150V138.264H69.9462V150H66.9462ZM73.5914 150V138.264H76.5194V140.064C76.8714 139.424 77.3594 138.928 77.9834 138.576C78.6074 138.208 79.3274 138.024 80.1434 138.024C81.9034 138.024 83.0554 138.792 83.5994 140.328C83.9674 139.608 84.4954 139.048 85.1834 138.648C85.8714 138.232 86.6554 138.024 87.5354 138.024C90.1754 138.024 91.4954 139.632 91.4954 142.848V150H88.4954V142.968C88.4954 142.072 88.3434 141.416 88.0394 141C87.7514 140.584 87.2554 140.376 86.5514 140.376C85.7674 140.376 85.1514 140.656 84.7034 141.216C84.2554 141.76 84.0314 142.52 84.0314 143.496V150H81.0314V142.968C81.0314 142.072 80.8794 141.416 80.5754 141C80.2874 140.584 79.7994 140.376 79.1114 140.376C78.3274 140.376 77.7114 140.656 77.2634 141.216C76.8154 141.76 76.5914 142.52 76.5914 143.496V150H73.5914ZM100.854 150.24C99.5263 150.24 98.3823 149.992 97.4223 149.496C96.4623 149 95.7183 148.296 95.1903 147.384C94.6783 146.472 94.4223 145.392 94.4223 144.144C94.4223 142.928 94.6703 141.864 95.1663 140.952C95.6783 140.04 96.3743 139.328 97.2543 138.816C98.1503 138.288 99.1663 138.024 100.302 138.024C101.966 138.024 103.278 138.552 104.238 139.608C105.214 140.664 105.702 142.104 105.702 143.928V144.816H97.3023C97.5263 146.912 98.7263 147.96 100.902 147.96C101.558 147.96 102.214 147.864 102.87 147.672C103.526 147.464 104.126 147.144 104.67 146.712L105.51 148.728C104.95 149.192 104.246 149.56 103.398 149.832C102.55 150.104 101.702 150.24 100.854 150.24ZM100.422 140.064C99.5423 140.064 98.8303 140.336 98.2863 140.88C97.7423 141.424 97.4143 142.16 97.3023 143.088H103.206C103.142 142.112 102.87 141.368 102.39 140.856C101.926 140.328 101.27 140.064 100.422 140.064ZM112.638 150.24C111.246 150.24 110.214 149.864 109.542 149.112C108.886 148.344 108.558 147.224 108.558 145.752V133.08H111.558V145.608C111.558 147.048 112.166 147.768 113.382 147.768C113.558 147.768 113.734 147.76 113.91 147.744C114.086 147.728 114.254 147.696 114.414 147.648L114.366 150.024C113.79 150.168 113.214 150.24 112.638 150.24ZM116.51 135.744V132.816H119.87V135.744H116.51ZM116.702 150V138.264H119.702V150H116.702ZM123.299 150V138.264H126.227V140.088C126.627 139.416 127.163 138.904 127.835 138.552C128.523 138.2 129.291 138.024 130.139 138.024C132.907 138.024 134.291 139.632 134.291 142.848V150H131.291V142.992C131.291 142.08 131.115 141.416 130.763 141C130.427 140.584 129.899 140.376 129.179 140.376C128.299 140.376 127.595 140.656 127.067 141.216C126.555 141.76 126.299 142.488 126.299 143.4V150H123.299ZM143.602 150.24C142.274 150.24 141.13 149.992 140.17 149.496C139.21 149 138.466 148.296 137.938 147.384C137.426 146.472 137.17 145.392 137.17 144.144C137.17 142.928 137.418 141.864 137.914 140.952C138.426 140.04 139.122 139.328 140.002 138.816C140.898 138.288 141.914 138.024 143.05 138.024C144.714 138.024 146.026 138.552 146.986 139.608C147.962 140.664 148.45 142.104 148.45 143.928V144.816H140.05C140.274 146.912 141.474 147.96 143.65 147.96C144.306 147.96 144.962 147.864 145.618 147.672C146.274 147.464 146.874 147.144 147.418 146.712L148.258 148.728C147.698 149.192 146.994 149.56 146.146 149.832C145.298 150.104 144.45 150.24 143.602 150.24ZM143.17 140.064C142.29 140.064 141.578 140.336 141.034 140.88C140.49 141.424 140.162 142.16 140.05 143.088H145.954C145.89 142.112 145.618 141.368 145.138 140.856C144.674 140.328 144.018 140.064 143.17 140.064Z" fill="white"/>
<g clip-path="url(#clip0_5263_7)">
<path d="M100 39C80.7002 39 65 54.7002 65 74C65 93.2998 80.7002 109 100 109C119.3 109 135 93.2998 135 74C135 54.7002 119.3 39 100 39ZM116.646 92.1035C116.077 92.6723 115.33 92.9585 114.584 92.9585C113.837 92.9585 113.09 92.6723 112.522 92.1035L97.938 77.5205C97.3895 76.9752 97.0835 76.234 97.0835 75.4585V56.5C97.0835 54.8871 98.3898 53.5835 100 53.5835C101.61 53.5835 102.916 54.8871 102.916 56.5V74.251L116.646 87.9795C117.786 89.1202 117.786 90.9633 116.646 92.1035Z" fill="white"/>
</g>
<defs>
<clipPath id="clip0_5263_7">
<rect width="70" height="70" fill="white" transform="translate(65 39)"/>
</clipPath>
</defs>
</svg>
