<svg width="180" height="180" viewBox="0 0 180 180" fill="none" xmlns="http://www.w3.org/2000/svg">
<circle cx="90" cy="90" r="90" fill="#F3C758"/>
<circle cx="114" cy="57" r="21" fill="white" fill-opacity="0.25"/>
<circle cx="33.5" cy="107.5" r="7.5" fill="white" fill-opacity="0.25"/>
<path d="M50.91 130.22C49.2967 130.22 47.9107 129.897 46.752 129.252C45.608 128.592 44.728 127.668 44.112 126.48C43.496 125.277 43.188 123.862 43.188 122.234C43.188 120.606 43.496 119.198 44.112 118.01C44.728 116.822 45.608 115.905 46.752 115.26C47.9107 114.6 49.2967 114.27 50.91 114.27C51.9513 114.27 52.934 114.431 53.858 114.754C54.7967 115.077 55.5667 115.539 56.168 116.14L55.244 118.384C54.584 117.827 53.9093 117.423 53.22 117.174C52.5307 116.91 51.79 116.778 50.998 116.778C49.4287 116.778 48.2333 117.255 47.412 118.208C46.5907 119.147 46.18 120.489 46.18 122.234C46.18 123.979 46.5907 125.329 47.412 126.282C48.2333 127.235 49.4287 127.712 50.998 127.712C51.79 127.712 52.5307 127.587 53.22 127.338C53.9093 127.074 54.584 126.663 55.244 126.106L56.168 128.35C55.5667 128.937 54.7967 129.399 53.858 129.736C52.934 130.059 51.9513 130.22 50.91 130.22ZM61.9569 130.22C61.1796 130.22 60.4829 130.073 59.8669 129.78C59.2656 129.472 58.7889 129.061 58.4369 128.548C58.0996 128.035 57.9309 127.455 57.9309 126.81C57.9309 126.018 58.1363 125.395 58.5469 124.94C58.9576 124.471 59.6249 124.133 60.5489 123.928C61.4729 123.723 62.7123 123.62 64.2669 123.62H65.0369V123.158C65.0369 122.425 64.8756 121.897 64.5529 121.574C64.2303 121.251 63.6876 121.09 62.9249 121.09C62.3236 121.09 61.7076 121.185 61.0769 121.376C60.4463 121.552 59.8083 121.831 59.1629 122.212L58.3709 120.342C58.7523 120.078 59.1996 119.851 59.7129 119.66C60.2409 119.455 60.7909 119.301 61.3629 119.198C61.9496 119.081 62.4996 119.022 63.0129 119.022C64.5823 119.022 65.7483 119.389 66.5109 120.122C67.2736 120.841 67.6549 121.963 67.6549 123.488V130H65.0809V128.284C64.8316 128.885 64.4356 129.362 63.8929 129.714C63.3503 130.051 62.7049 130.22 61.9569 130.22ZM62.5289 128.328C63.2476 128.328 63.8416 128.079 64.3109 127.58C64.7949 127.081 65.0369 126.451 65.0369 125.688V125.204H64.2889C62.9103 125.204 61.9496 125.314 61.4069 125.534C60.8789 125.739 60.6149 126.121 60.6149 126.678C60.6149 127.162 60.7836 127.558 61.1209 127.866C61.4583 128.174 61.9276 128.328 62.5289 128.328ZM74.6262 130.22C73.3502 130.22 72.4042 129.875 71.7882 129.186C71.1868 128.482 70.8862 127.455 70.8862 126.106V114.49H73.6362V125.974C73.6362 127.294 74.1935 127.954 75.3082 127.954C75.4695 127.954 75.6308 127.947 75.7922 127.932C75.9535 127.917 76.1075 127.888 76.2542 127.844L76.2102 130.022C75.6822 130.154 75.1542 130.22 74.6262 130.22ZM83.5461 130.22C82.3288 130.22 81.2801 129.993 80.4001 129.538C79.5201 129.083 78.8381 128.438 78.3541 127.602C77.8848 126.766 77.6501 125.776 77.6501 124.632C77.6501 123.517 77.8775 122.542 78.3321 121.706C78.8015 120.87 79.4395 120.217 80.2461 119.748C81.0675 119.264 81.9988 119.022 83.0401 119.022C84.5655 119.022 85.7681 119.506 86.6481 120.474C87.5428 121.442 87.9901 122.762 87.9901 124.434V125.248H80.2901C80.4955 127.169 81.5955 128.13 83.5901 128.13C84.1915 128.13 84.7928 128.042 85.3941 127.866C85.9955 127.675 86.5455 127.382 87.0441 126.986L87.8141 128.834C87.3008 129.259 86.6555 129.597 85.8781 129.846C85.1008 130.095 84.3235 130.22 83.5461 130.22ZM83.1501 120.892C82.3435 120.892 81.6908 121.141 81.1921 121.64C80.6935 122.139 80.3928 122.813 80.2901 123.664H85.7021C85.6435 122.769 85.3941 122.087 84.9541 121.618C84.5288 121.134 83.9275 120.892 83.1501 120.892ZM90.608 130V119.242H93.292V120.914C93.6586 120.298 94.15 119.829 94.766 119.506C95.3966 119.183 96.1006 119.022 96.878 119.022C99.4153 119.022 100.684 120.496 100.684 123.444V130H97.934V123.576C97.934 122.74 97.7726 122.131 97.45 121.75C97.142 121.369 96.658 121.178 95.998 121.178C95.1913 121.178 94.546 121.435 94.062 121.948C93.5926 122.447 93.358 123.114 93.358 123.95V130H90.608ZM108.053 130.22C107.114 130.22 106.286 129.993 105.567 129.538C104.863 129.083 104.313 128.438 103.917 127.602C103.521 126.751 103.323 125.754 103.323 124.61C103.323 123.451 103.521 122.461 103.917 121.64C104.313 120.804 104.863 120.159 105.567 119.704C106.286 119.249 107.114 119.022 108.053 119.022C108.816 119.022 109.505 119.191 110.121 119.528C110.737 119.865 111.199 120.313 111.507 120.87V114.49H114.257V130H111.573V128.218C111.28 128.834 110.818 129.325 110.187 129.692C109.556 130.044 108.845 130.22 108.053 130.22ZM108.823 128.13C109.644 128.13 110.304 127.837 110.803 127.25C111.302 126.649 111.551 125.769 111.551 124.61C111.551 123.437 111.302 122.564 110.803 121.992C110.304 121.405 109.644 121.112 108.823 121.112C108.002 121.112 107.342 121.405 106.843 121.992C106.344 122.564 106.095 123.437 106.095 124.61C106.095 125.769 106.344 126.649 106.843 127.25C107.342 127.837 108.002 128.13 108.823 128.13ZM121.091 130.22C120.313 130.22 119.617 130.073 119.001 129.78C118.399 129.472 117.923 129.061 117.571 128.548C117.233 128.035 117.065 127.455 117.065 126.81C117.065 126.018 117.27 125.395 117.681 124.94C118.091 124.471 118.759 124.133 119.683 123.928C120.607 123.723 121.846 123.62 123.401 123.62H124.171V123.158C124.171 122.425 124.009 121.897 123.687 121.574C123.364 121.251 122.821 121.09 122.059 121.09C121.457 121.09 120.841 121.185 120.211 121.376C119.58 121.552 118.942 121.831 118.297 122.212L117.505 120.342C117.886 120.078 118.333 119.851 118.847 119.66C119.375 119.455 119.925 119.301 120.497 119.198C121.083 119.081 121.633 119.022 122.147 119.022C123.716 119.022 124.882 119.389 125.645 120.122C126.407 120.841 126.789 121.963 126.789 123.488V130H124.215V128.284C123.965 128.885 123.569 129.362 123.027 129.714C122.484 130.051 121.839 130.22 121.091 130.22ZM121.663 128.328C122.381 128.328 122.975 128.079 123.445 127.58C123.929 127.081 124.171 126.451 124.171 125.688V125.204H123.423C122.044 125.204 121.083 125.314 120.541 125.534C120.013 125.739 119.749 126.121 119.749 126.678C119.749 127.162 119.917 127.558 120.255 127.866C120.592 128.174 121.061 128.328 121.663 128.328ZM130.02 130V119.242H132.704V121.134C133.232 119.858 134.361 119.154 136.092 119.022L136.928 118.956L137.104 121.288L135.52 121.442C133.716 121.618 132.814 122.542 132.814 124.214V130H130.02Z" fill="white"/>
<g clip-path="url(#clip0_5263_8)">
<path d="M77.5001 41C76.5138 41 75.7144 41.7995 75.7144 42.7857V46.3571H79.2857V42.7857C79.2857 41.7995 78.4863 41 77.5001 41Z" fill="white"/>
<path d="M102.5 41C101.514 41 100.714 41.7995 100.714 42.7857V46.3571H104.286V42.7857C104.286 41.7995 103.486 41 102.5 41Z" fill="white"/>
<path d="M109.643 46.3569H104.286V53.4998C104.286 54.4861 103.486 55.2856 102.5 55.2856C101.514 55.2856 100.714 54.4861 100.714 53.4998V46.3569H79.2857V53.4998C79.2857 54.4861 78.4862 55.2856 77.4999 55.2856C76.5137 55.2856 75.7142 54.4861 75.7142 53.4998V46.3569H70.3571C67.3985 46.3569 65 48.7554 65 51.7141V85.6427C65 88.6013 67.3985 90.9998 70.3571 90.9998H109.643C112.602 90.9998 115 88.6013 115 85.6427V51.7141C115 48.7554 112.602 46.3569 109.643 46.3569ZM111.429 85.6427C111.429 86.6289 110.629 87.4284 109.643 87.4284H70.3571C69.3709 87.4284 68.5714 86.6289 68.5714 85.6427V62.4284H111.429V85.6427Z" fill="white"/>
<path d="M79.2856 66H75.7142C74.728 66 73.9285 66.7995 73.9285 67.7857C73.9285 68.772 74.728 69.5715 75.7142 69.5715H79.2856C80.2719 69.5715 81.0714 68.772 81.0714 67.7857C81.0714 66.7995 80.2719 66 79.2856 66Z" fill="white"/>
<path d="M91.7856 66H88.2142C87.228 66 86.4285 66.7995 86.4285 67.7857C86.4285 68.772 87.228 69.5715 88.2142 69.5715H91.7856C92.7719 69.5715 93.5713 68.772 93.5713 67.7857C93.5713 66.7995 92.7719 66 91.7856 66Z" fill="white"/>
<path d="M104.286 66H100.714C99.7282 66 98.9287 66.7995 98.9287 67.7857C98.9287 68.772 99.7282 69.5715 100.714 69.5715H104.286C105.272 69.5715 106.072 68.772 106.072 67.7857C106.072 66.7995 105.272 66 104.286 66Z" fill="white"/>
<path d="M79.2856 73.1426H75.7142C74.728 73.1426 73.9285 73.9421 73.9285 74.9283C73.9285 75.9146 74.728 76.7141 75.7142 76.7141H79.2856C80.2719 76.7141 81.0714 75.9146 81.0714 74.9283C81.0714 73.9421 80.2719 73.1426 79.2856 73.1426Z" fill="white"/>
<path d="M91.7856 73.1426H88.2142C87.228 73.1426 86.4285 73.9421 86.4285 74.9283C86.4285 75.9146 87.228 76.7141 88.2142 76.7141H91.7856C92.7719 76.7141 93.5713 75.9146 93.5713 74.9283C93.5713 73.9421 92.7719 73.1426 91.7856 73.1426Z" fill="white"/>
<path d="M104.286 73.1426H100.714C99.7282 73.1426 98.9287 73.9421 98.9287 74.9283C98.9287 75.9146 99.7282 76.7141 100.714 76.7141H104.286C105.272 76.7141 106.072 75.9146 106.072 74.9283C106.072 73.9421 105.272 73.1426 104.286 73.1426Z" fill="white"/>
<path d="M79.2856 80.2856H75.7142C74.728 80.2856 73.9285 81.0851 73.9285 82.0714C73.9285 83.0576 74.728 83.857 75.7142 83.857H79.2856C80.2719 83.857 81.0714 83.0575 81.0714 82.0713C81.0714 81.085 80.2719 80.2856 79.2856 80.2856Z" fill="white"/>
<path d="M91.7856 80.2856H88.2142C87.228 80.2856 86.4285 81.0851 86.4285 82.0714C86.4285 83.0577 87.228 83.8571 88.2142 83.8571H91.7856C92.7719 83.8571 93.5713 83.0577 93.5713 82.0714C93.5713 81.0851 92.7719 80.2856 91.7856 80.2856Z" fill="white"/>
<path d="M104.286 80.2856H100.714C99.7282 80.2856 98.9287 81.0851 98.9287 82.0714C98.9287 83.0577 99.7282 83.8571 100.714 83.8571H104.286C105.272 83.8571 106.072 83.0577 106.072 82.0714C106.072 81.0851 105.272 80.2856 104.286 80.2856Z" fill="white"/>
</g>
<defs>
<clipPath id="clip0_5263_8">
<rect width="50" height="50" fill="white" transform="translate(65 41)"/>
</clipPath>
</defs>
</svg>
